<svg width="72" height="72" viewBox="0 0 72 72" fill="none" xmlns="http://www.w3.org/2000/svg">
<path d="M35 36.5C30.2 36.5 29 40.8333 29 43C30.5 43.5 34.5 44.5 38.5 44.5C42.5 44.5 43.1667 39.1667 43 36.5H35Z" fill="#F9D14C"/>
<path d="M12.7066 45C8.94131 45 8 48.25 8 49.875C9.17664 50.25 12.3144 51 15.4521 51C18.5898 51 19.1127 47 18.982 45H12.7066Z" fill="#F9D14C"/>
<path d="M58.7066 45C54.9413 45 54 48.25 54 49.875C55.1766 50.25 58.3144 51 61.4521 51C64.5898 51 65.1127 47 64.982 45H58.7066Z" fill="#F9D14C"/>
<path d="M64.3141 57.3801C65.0859 56.3136 65.5425 55.0048 65.5425 53.5908V45.1406C65.5425 44.364 64.9128 43.7344 64.1362 43.7344H57.8514C54.9461 43.7344 52.5825 46.098 52.5825 49.0033V53.5908C52.5825 55.0039 53.0385 56.3117 53.8093 57.378C52.848 57.5339 51.9231 57.8419 51.0605 58.2927C49.1067 55.3773 45.9056 53.3666 42.2272 53.0274C42.2128 53.0234 42.1982 53.0204 42.1837 53.0169C43.4998 51.5472 44.3021 49.6083 44.3021 47.4848V36C44.3021 35.2233 43.6724 34.5938 42.8958 34.5938H34.354C30.6838 34.5938 27.6979 37.5796 27.6979 41.2498V47.4847C27.6979 49.6081 28.5002 51.5471 29.8163 53.0168C29.8018 53.0203 29.7872 53.0234 29.7728 53.0273C26.094 53.3665 22.8928 55.3774 20.9391 58.2933C20.0762 57.8426 19.1512 57.5343 18.1903 57.3784C18.9612 56.3122 19.4175 55.0041 19.4175 53.5908V45.1406C19.4175 44.364 18.7878 43.7344 18.0112 43.7344H11.7264C8.82113 43.7344 6.4575 46.098 6.4575 49.0033V53.5908C6.4575 55.0049 6.91411 56.3136 7.68586 57.3801C3.33309 58.0915 0 61.877 0 66.4277V70.5938C0 71.3704 0.629719 72 1.40625 72H70.5938C71.3703 72 72 71.3704 72 70.5938V66.4277C72 61.877 68.6669 58.0915 64.3141 57.3801ZM9.27 49.0033C9.27 47.6488 10.3719 46.5469 11.7264 46.5469H16.605V48.2595C16.605 49.0994 15.9218 49.7825 15.0822 49.7825H9.27V49.0033ZM9.27 52.5949H15.0822C15.618 52.5949 16.131 52.4966 16.605 52.318V53.5908C16.605 55.613 14.9598 57.2583 12.9375 57.2583C10.9152 57.2583 9.27 55.613 9.27 53.5908V52.5949ZM13.8441 60.0708L12.9375 60.9774L12.0309 60.0708H13.8441ZM18.9214 64.9316V69.1875H2.8125V66.4277C2.8125 63.2737 5.12198 60.6499 8.13839 60.1557L11.9431 63.9605C12.207 64.2241 12.5646 64.3724 12.9375 64.3724C13.3104 64.3724 13.668 64.2241 13.9319 63.9605L17.7377 60.1545C18.4099 60.2639 19.0564 60.4806 19.6588 60.7975C19.1824 62.0865 18.9214 63.4791 18.9214 64.9316ZM36.0001 52.9744C32.9732 52.9744 30.5106 50.5118 30.5106 47.4848V45.6262H38.9149C39.8468 45.6262 40.7243 45.3881 41.4897 44.9699V47.4848C41.4897 50.5118 39.0271 52.9744 36.0001 52.9744ZM38.4514 55.7868L36 58.2382L33.5486 55.7868H38.4514ZM30.5103 41.2498H30.5104C30.5104 39.1305 32.2346 37.4062 34.354 37.4062H41.4896V40.239C41.4896 41.6588 40.3345 42.8138 38.9147 42.8138H30.5103V41.2498ZM50.266 69.1875H47.5312H24.4688H21.734V66.375H30.8907C31.6672 66.375 32.2969 65.7454 32.2969 64.9688C32.2969 64.1921 31.6672 63.5625 30.8907 63.5625H21.8368C22.4395 59.5658 25.6388 56.4109 29.6554 55.871L35.0056 61.2212C35.2803 61.4959 35.6401 61.6331 36 61.6331C36.3599 61.6331 36.7197 61.4959 36.9944 61.2212L42.3446 55.871C46.8103 56.4712 50.266 60.3042 50.266 64.9316V69.1875ZM55.395 49.0033C55.395 47.6488 56.4969 46.5469 57.8514 46.5469H62.73V48.2595C62.73 49.0994 62.0468 49.7825 61.2072 49.7825H55.395V49.0033ZM55.395 52.5949H61.2072C61.743 52.5949 62.256 52.4966 62.73 52.318V53.5908C62.73 55.613 61.0848 57.2583 59.0625 57.2583C57.0402 57.2583 55.395 55.613 55.395 53.5908V52.5949ZM59.9691 60.0708L59.0625 60.9774L58.1559 60.0708H59.9691ZM53.0785 69.1875V64.9316C53.0785 63.479 52.8175 62.0864 52.3409 60.7972C52.9431 60.48 53.5894 60.2634 54.2617 60.1542L58.068 63.9605C58.3318 64.2241 58.6894 64.3724 59.0624 64.3724C59.4353 64.3724 59.7929 64.2241 60.0567 63.9605L63.8615 60.1557C66.8779 60.65 69.1874 63.2737 69.1874 66.4277V69.1875H53.0785Z" fill="black"/>
<path d="M42.9306 9.18822C42.3813 8.63908 41.4911 8.63908 40.9417 9.18822L34.0412 16.0888L31.0582 13.1058C30.5089 12.5565 29.6187 12.5565 29.0694 13.1056C28.5203 13.6548 28.5203 14.5452 29.0694 15.0945L33.0469 19.0719C33.3107 19.3356 33.6683 19.4838 34.0412 19.4838C34.4142 19.4838 34.7718 19.3356 35.0356 19.0719L42.9306 11.1769C43.4797 10.6278 43.4797 9.73736 42.9306 9.18822Z" fill="black"/>
<path d="M41.7498 1.21942C41.0407 0.903154 40.2091 1.22167 39.8927 1.93098C39.5763 2.64029 39.895 3.47181 40.6043 3.78808C44.6823 5.60678 47.3173 9.6662 47.3173 14.1299C47.3173 20.3703 42.2403 25.4473 36 25.4473C29.7596 25.4473 24.6826 20.3703 24.6826 14.1299C24.6826 9.68926 27.2986 5.63828 31.3472 3.80973C32.055 3.49009 32.3697 2.65703 32.0499 1.94926C31.7303 1.24136 30.8968 0.926779 30.1896 1.24642C25.1358 3.52904 21.8702 8.58606 21.8702 14.1298C21.8701 21.9211 28.2088 28.2598 36 28.2598C43.7911 28.2598 50.1298 21.9211 50.1298 14.1299C50.1298 8.55737 46.8405 3.48967 41.7498 1.21942Z" fill="black"/>
<path d="M36.0503 0H36C35.2235 0 34.5938 0.629578 34.5938 1.40625C34.5938 2.18292 35.2235 2.8125 36 2.8125H36.0371C36.0394 2.8125 36.0415 2.8125 36.0439 2.8125C36.8175 2.8125 37.4463 2.18728 37.45 1.41286C37.4536 0.636188 36.827 0.00365625 36.0503 0Z" fill="black"/>
<path d="M36.9941 63.9745C36.7327 63.713 36.3698 63.5625 36 63.5625C35.6302 63.5625 35.2673 63.713 35.0058 63.9745C34.7442 64.2361 34.5938 64.5989 34.5938 64.9688C34.5938 65.3386 34.7441 65.7014 35.0058 65.963C35.2675 66.2245 35.6302 66.375 36 66.375C36.3698 66.375 36.7327 66.2245 36.9941 65.963C37.2556 65.7014 37.4062 65.3386 37.4062 64.9688C37.4062 64.5989 37.2558 64.2361 36.9941 63.9745Z" fill="black"/>
</svg>
