<svg width="73" height="66" viewBox="0 0 73 66" fill="none" xmlns="http://www.w3.org/2000/svg">
<path d="M70.7344 40.8431V10.8281C70.7344 7.3388 67.8956 4.5 64.4062 4.5H56.1094V2.10938C56.1094 0.944438 55.1649 0 54 0C52.8351 0 51.8906 0.944438 51.8906 2.10938V4.5H38.1094V2.10938C38.1094 0.944438 37.1649 0 36 0C34.8351 0 33.8906 0.944438 33.8906 2.10938V4.5H20.1094V2.10938C20.1094 0.944438 19.1649 0 18 0C16.8351 0 15.8906 0.944438 15.8906 2.10938V4.5H6.32812C2.8388 4.5 0 7.3388 0 10.8281V49.6406C0 53.13 2.8388 55.9688 6.32812 55.9688H39.0839C42.0968 61.3346 47.8425 64.9688 54.4219 64.9688C64.1145 64.9688 72 57.0832 72 47.3906C72 45.0775 71.55 42.8678 70.7344 40.8431ZM6.32812 51.75C5.16502 51.75 4.21875 50.8037 4.21875 49.6406V10.8281C4.21875 9.66502 5.16502 8.71875 6.32812 8.71875H15.8906V11.25C15.8906 12.4149 16.8351 13.3594 18 13.3594C19.1649 13.3594 20.1094 12.4149 20.1094 11.25V8.71875H33.8906V11.25C33.8906 12.4149 34.8351 13.3594 36 13.3594C37.1649 13.3594 38.1094 12.4149 38.1094 11.25V8.71875H51.8906V11.25C51.8906 12.4149 52.8351 13.3594 54 13.3594C55.1649 13.3594 56.1094 12.4149 56.1094 11.25V8.71875H64.4062C65.5694 8.71875 66.5156 9.66502 66.5156 10.8281V34.6459C63.3623 31.6522 59.103 29.8125 54.4219 29.8125C44.7293 29.8125 36.8438 37.698 36.8438 47.3906C36.8438 48.8949 37.034 50.3554 37.3912 51.75H6.32812Z" fill="#42454D"/>
<path d="M14.625 22.5H11.25C10.0851 22.5 9.14062 23.4444 9.14062 24.6094C9.14062 25.7743 10.0851 26.7188 11.25 26.7188H14.625C15.7899 26.7188 16.7344 25.7743 16.7344 24.6094C16.7344 23.4444 15.7899 22.5 14.625 22.5Z" fill="#42454D"/>
<path d="M27 22.5H23.625C22.4601 22.5 21.5156 23.4444 21.5156 24.6094C21.5156 25.7743 22.4601 26.7188 23.625 26.7188H27C28.1649 26.7188 29.1094 25.7743 29.1094 24.6094C29.1094 23.4444 28.1649 22.5 27 22.5Z" fill="#42454D"/>
<path d="M27 31.5H23.625C22.4601 31.5 21.5156 32.4444 21.5156 33.6094C21.5156 34.7743 22.4601 35.7188 23.625 35.7188H27C28.1649 35.7188 29.1094 34.7743 29.1094 33.6094C29.1094 32.4444 28.1649 31.5 27 31.5Z" fill="#42454D"/>
<path d="M14.625 31.5H11.25C10.0851 31.5 9.14062 32.4444 9.14062 33.6094C9.14062 34.7743 10.0851 35.7188 11.25 35.7188H14.625C15.7899 35.7188 16.7344 34.7743 16.7344 33.6094C16.7344 32.4444 15.7899 31.5 14.625 31.5Z" fill="#42454D"/>
<path d="M14.625 40.5H11.25C10.0851 40.5 9.14062 41.4444 9.14062 42.6094C9.14062 43.7743 10.0851 44.7188 11.25 44.7188H14.625C15.7899 44.7188 16.7344 43.7743 16.7344 42.6094C16.7344 41.4444 15.7899 40.5 14.625 40.5Z" fill="#42454D"/>
<path d="M27 40.5H23.625C22.4601 40.5 21.5156 41.4444 21.5156 42.6094C21.5156 43.7743 22.4601 44.7188 23.625 44.7188H27C28.1649 44.7188 29.1094 43.7743 29.1094 42.6094C29.1094 41.4444 28.1649 40.5 27 40.5Z" fill="#42454D"/>
<circle cx="54.5" cy="47.5" r="18.5" fill="#F9D14C"/>
<path d="M59.1562 52H57.4805V55H55.1953V52H48.4805V50.0781L54.8438 39.8828H57.4805V49.8438H59.1562V52ZM55.1953 49.8438V43.2344L51.1172 49.8438H55.1953Z" fill="#42454D"/>
</svg>
