<svg width="72" height="62" viewBox="0 0 72 62" fill="none" xmlns="http://www.w3.org/2000/svg">
<path d="M11.5247 12.9512C11.8845 12.9512 12.2443 12.8139 12.5189 12.5392C12.52 12.5386 12.5239 12.5348 12.5272 12.5315C13.076 11.9899 13.0864 11.106 12.5481 10.5512C12.007 9.99422 11.1165 9.98048 10.559 10.5216C10.5529 10.5276 10.5348 10.5452 10.5288 10.5518C9.98111 11.1011 9.98111 11.9904 10.5299 12.5392C10.8051 12.8144 11.1649 12.9512 11.5247 12.9512Z" fill="#42454D"/>
<path d="M59.5 28L57.5 23.5L66 19.5L69.5 27L70.5 34L70 41.5L67.5 49.5L64.5 54.5L62 55.5H59.5L57.5 53L57 50L59.5 45L61 37.5L60.5 33L59.5 28Z" fill="#F9D14C"/>
<path d="M71.6967 31.3269C70.6657 23.4926 67.0336 16.1142 61.4701 10.5507C54.6663 3.74688 45.6213 0 36 0C28.481 0 21.2822 2.289 15.1815 6.61925C14.5481 7.06914 14.3993 7.94695 14.8486 8.58031C15.2979 9.21367 16.1758 9.36253 16.8097 8.91319C17.2634 8.5913 17.7237 8.28258 18.1901 7.9854L21.6881 14.0444C20.1808 15.0304 18.7636 16.1779 17.4606 17.4809C16.1697 18.7718 15.0222 20.1934 14.0323 21.7128L7.97337 18.2153C8.60509 17.2188 9.29008 16.2548 10.0284 15.3281C10.5118 14.7206 10.4118 13.8356 9.80424 13.3517C9.19615 12.8677 8.31175 12.9682 7.82781 13.5752C3.76232 18.68 1.16021 24.8181 0.30328 31.3264C-0.724489 39.1316 0.879513 47.1879 4.81756 54.0087C5.65416 55.4649 7.00768 56.5075 8.62871 56.9453C9.17418 57.0931 9.72789 57.1656 10.2783 57.1656C11.3632 57.1656 12.4344 56.8822 13.4001 56.3274C14.8563 55.4902 15.8989 54.1372 16.3367 52.5162C16.7745 50.8946 16.5553 49.2005 15.7171 47.7421C13.1155 43.2355 12.0993 38.123 12.7793 32.9573C13.4555 27.8212 15.7621 23.1575 19.4497 19.4699C23.8706 15.049 29.7482 12.615 36 12.615C42.2523 12.615 48.1305 15.049 52.5509 19.4699C56.2384 23.1569 58.5445 27.8212 59.2212 32.9573C59.5464 35.4287 59.4827 37.8879 59.0432 40.2753L44.5127 34.7788C44.248 32.9518 43.4064 31.2604 42.0853 29.9393C38.7312 26.5852 33.2737 26.5852 29.9196 29.9393C26.5655 33.2935 26.5655 38.7515 29.9196 42.1056C31.5967 43.7826 33.7994 44.6209 36.0022 44.6209C38.2055 44.6209 40.4083 43.7826 42.0853 42.105C42.3226 41.8683 42.5451 41.6172 42.7527 41.3552L58.0808 43.8596C57.6051 45.1933 57.0047 46.4919 56.2818 47.7443C54.5553 50.7502 55.5952 54.6003 58.6005 56.3268C60.0562 57.164 61.7508 57.3831 63.3718 56.9453C64.9929 56.5075 66.3464 55.4644 67.1814 54.0114C71.1205 47.1884 72.7245 39.1316 71.6967 31.3269ZM13.2798 49.1462C13.7417 49.9509 13.8631 50.8869 13.6214 51.7829C13.3792 52.6783 12.803 53.4264 11.9988 53.8884C11.194 54.3509 10.258 54.4723 9.36204 54.2306C8.46666 53.9884 7.71849 53.4121 7.25487 52.6052C4.54015 47.9031 3.04601 42.7389 2.83123 37.4271H9.80864C10.0333 41.5332 11.2171 45.574 13.2798 49.1462ZM9.99101 32.5903C9.90202 33.2633 9.84159 33.9384 9.80589 34.614H2.83672C2.87957 33.6428 2.96362 32.6694 3.09216 31.6939C3.60302 27.8151 4.78624 24.0803 6.56987 20.6532L12.6244 24.1485C11.2797 26.7879 10.3783 29.6477 9.99101 32.5903ZM31.9081 40.1165C29.651 37.8594 29.651 34.1861 31.9081 31.929C34.1658 29.6713 37.8386 29.6718 40.0962 31.929C40.5698 32.4025 40.951 32.9468 41.2317 33.5385L37.22 32.0207C36.2263 31.645 35.137 31.7153 34.1527 32.2201C33.0881 32.7656 32.2669 33.7824 31.957 34.9392C31.6472 36.0955 31.8499 37.3859 32.4992 38.3911C33.0996 39.32 34.0071 39.9264 35.0557 40.0978L39.2871 40.7889C37.0327 42.344 33.9132 42.121 31.9081 40.1165ZM42.3408 38.4378C42.3369 38.4373 42.3331 38.4367 42.3292 38.4356L35.5095 37.3216C35.1837 37.2683 34.9777 37.0436 34.8618 36.8651C34.6399 36.5212 34.5679 36.062 34.674 35.6665C34.78 35.271 35.0717 34.9095 35.4359 34.7228C35.5616 34.6585 35.7325 34.5964 35.9236 34.5964C36.0198 34.5964 36.1214 34.6124 36.2247 34.6514L42.6698 37.0892C42.683 37.0947 42.6967 37.0997 42.7104 37.1046L49.1946 39.5573L42.3408 38.4378ZM37.4062 9.83989V2.84436C42.3468 3.0487 47.0934 4.32916 51.3775 6.57256L47.8784 12.6337C44.6512 10.9907 41.0998 10.0338 37.4062 9.83989ZM20.6236 6.57421C24.9302 4.31762 29.6741 3.0465 34.5938 2.84271V9.83989C30.9002 10.0338 27.3488 10.9907 24.1216 12.6337L20.6236 6.57421ZM50.3119 14.0444L53.8121 7.9821C55.8391 9.27519 57.7403 10.7984 59.481 12.5392C61.2213 14.2795 62.7429 16.1795 64.0349 18.2104L57.9682 21.7133C56.9784 20.1934 55.8303 18.7718 54.5394 17.4809C53.2364 16.1779 51.8192 15.0304 50.3119 14.0444ZM59.3756 24.1485L65.4422 20.646C67.2182 24.054 68.392 27.7728 68.9084 31.6939C69.0364 32.6689 69.1204 33.6428 69.1638 34.614H62.1947C62.159 33.9384 62.098 33.2633 62.0095 32.5903C61.6223 29.6477 60.7208 26.7879 59.3756 24.1485ZM64.7435 52.6074C64.2815 53.4121 63.5333 53.9884 62.638 54.2301C61.7426 54.4718 60.806 54.3509 60.0018 53.8884C58.3412 52.9342 57.7661 50.8067 58.7191 49.1489C59.6052 47.6141 60.3286 45.9931 60.884 44.3177L62.5979 44.5978C62.6748 44.6105 62.7506 44.6165 62.8258 44.6165C63.452 44.6165 64.0162 44.1968 64.1832 43.5739C64.3705 42.8757 63.9981 42.1501 63.3224 41.8941L61.6942 41.2789C61.9535 40.0094 62.1205 38.7218 62.1919 37.4271H69.1688C68.954 42.7395 67.4599 47.9036 64.7435 52.6074Z" fill="#42454D"/>
<path d="M44.4386 49.8509H27.5614C26.7847 49.8509 26.1552 50.4804 26.1552 51.2571V55.7577C26.1552 56.5344 26.7847 57.1639 27.5614 57.1639H44.4386C45.2153 57.1639 45.8454 56.5344 45.8454 55.7577V51.2571C45.8454 50.4804 45.2153 49.8509 44.4386 49.8509ZM43.0323 54.3514H28.9682V52.6634H43.0323V54.3514Z" fill="#42454D"/>
<path d="M15.2122 34.614C14.4355 34.614 13.806 35.2435 13.806 36.0202C13.806 36.7969 14.4355 37.4264 15.2122 37.4264H15.2457C16.0225 37.4264 16.652 36.7969 16.652 36.0202C16.652 35.2435 16.0225 34.614 15.2457 34.614H15.2122Z" fill="#42454D"/>
<path d="M26.8429 17.344L26.8264 17.3149C26.4375 16.6425 25.5773 16.4118 24.9049 16.8007C24.2326 17.1891 24.0019 18.0493 24.3908 18.7223L24.4073 18.7508C24.6676 19.2018 25.1406 19.4539 25.6262 19.4539C25.8651 19.4539 26.1068 19.393 26.3282 19.2655C27.0011 18.8766 27.2313 18.0169 26.8429 17.344Z" fill="#42454D"/>
<path d="M46.378 19.4567C46.8641 19.4567 47.3366 19.2045 47.5969 18.7535L47.6134 18.7244C48.0023 18.0521 47.7716 17.1918 47.0992 16.8029C46.4269 16.4146 45.5667 16.6447 45.1777 17.3176L45.1613 17.3467C44.7729 18.0191 45.0031 18.8793 45.676 19.2677C45.8973 19.3957 46.139 19.4567 46.378 19.4567Z" fill="#42454D"/>
<path d="M56.7878 37.4314C57.5645 37.4314 58.194 36.8019 58.194 36.0251C58.194 35.2484 57.5645 34.6183 56.7878 34.6183H56.7548C55.9781 34.6183 55.348 35.2484 55.348 36.0251C55.348 36.8019 55.9781 37.4314 56.7548 37.4314H56.7878Z" fill="#42454D"/>
<path d="M31.1105 58.5707H31.0776C30.3008 58.5707 29.6713 59.2003 29.6713 59.977C29.6713 60.7537 30.3008 61.3832 31.0776 61.3832H31.1105C31.8873 61.3832 32.5173 60.7537 32.5173 59.977C32.5173 59.2003 31.8873 58.5707 31.1105 58.5707Z" fill="#42454D"/>
<path d="M40.923 58.5707H35.1513C34.3751 58.5707 33.7451 59.2008 33.7451 59.9775C33.7451 60.7543 34.3751 61.3838 35.1513 61.3838H40.923C41.6991 61.3838 42.3292 60.7543 42.3292 59.9775C42.3292 59.2008 41.6997 58.5707 40.923 58.5707Z" fill="#42454D"/>
</svg>
