<svg width="79" height="72" viewBox="0 0 79 72" fill="none" xmlns="http://www.w3.org/2000/svg">
<path d="M63 13.0781C63.7767 13.0781 64.4062 12.4485 64.4062 11.6719V4.21875C64.4062 1.89253 62.5137 0 60.1875 0H4.21875C1.89253 0 0 1.89253 0 4.21875V67.7812C0 70.1075 1.89253 72 4.21875 72H60.1875C62.5137 72 64.4062 70.1075 64.4062 67.7812V63.8438C64.4062 63.0671 63.7767 62.4375 63 62.4375C62.2233 62.4375 61.5938 63.0671 61.5938 63.8438V67.7812C61.5938 68.5567 60.9629 69.1875 60.1875 69.1875H4.21875C3.44334 69.1875 2.8125 68.5567 2.8125 67.7812V4.21875C2.8125 3.44334 3.44334 2.8125 4.21875 2.8125H60.1875C60.9629 2.8125 61.5938 3.44334 61.5938 4.21875V11.6719C61.5938 12.4485 62.2233 13.0781 63 13.0781Z" fill="black"/>
<path d="M56.2508 6.75H8.1554C7.37872 6.75 6.74915 7.37958 6.74915 8.15625V37.5469C6.74915 38.3235 7.37872 38.9531 8.1554 38.9531C8.93207 38.9531 9.56165 38.3235 9.56165 37.5469V9.5625H54.8446V10C54.8446 10.7767 55.4743 11.4062 56.2508 11.4062C57.0275 11.4062 57.6571 10.7767 57.6571 10V8.15625C57.6571 7.37958 57.0275 6.75 56.2508 6.75Z" fill="black"/>
<path d="M9.14913 41.7558C8.88756 41.4942 8.52616 41.3438 8.15491 41.3438C7.78506 41.3438 7.42225 41.4942 7.16069 41.7558C6.89913 42.0173 6.74866 42.3802 6.74866 42.75C6.74866 43.1198 6.89913 43.4827 7.16069 43.7442C7.42225 44.0058 7.78506 44.1562 8.15491 44.1562C8.52616 44.1562 8.88756 44.0058 9.14913 43.7442C9.4121 43.4827 9.56116 43.1198 9.56116 42.75C9.56116 42.3802 9.4121 42.0173 9.14913 41.7558Z" fill="black"/>
<path d="M56.2508 59.3438C55.4742 59.3438 54.8446 59.9733 54.8446 60.75V62.4375H9.56165V48.1641C9.56165 47.3874 8.93207 46.7578 8.1554 46.7578C7.37872 46.7578 6.74915 47.3874 6.74915 48.1641V63.8438C6.74915 64.6204 7.37872 65.25 8.1554 65.25H56.2508C57.0275 65.25 57.6571 64.6204 57.6571 63.8438V60.75C57.6571 59.9733 57.0275 59.3438 56.2508 59.3438Z" fill="black"/>
<path d="M43.5802 49.6879C43.0311 49.1386 42.1408 49.1386 41.5915 49.6877L38.8122 52.4672L37.0846 50.7395C35.9938 49.6488 34.2192 49.6488 33.1284 50.7395L32.0043 51.8636C31.4551 52.4128 31.4551 53.3032 32.0043 53.8525C32.5534 54.4016 33.4438 54.4016 33.9931 53.8525L35.1066 52.739L36.8342 54.4667C37.3795 55.0121 38.0959 55.2847 38.8122 55.2847C39.5285 55.2847 40.2449 55.0121 40.7902 54.4667L43.5802 51.6767C44.1294 51.1276 44.1294 50.2371 43.5802 49.6879Z" fill="black"/>
<path d="M71.3526 29.5006C71.9723 28.5338 72.1574 27.3429 71.8601 26.2337C71.5628 25.1244 70.8074 24.1858 69.7872 23.6584C69.3448 23.4298 69.0739 22.9607 69.0971 22.4633C69.1504 21.316 68.7153 20.1924 67.9034 19.3803C67.0914 18.5684 65.9681 18.1326 64.8204 18.1866C64.3207 18.2108 63.8539 17.9388 63.6253 17.4965C63.0979 16.4764 62.1592 15.7209 61.05 15.4236C59.9403 15.1262 58.7499 15.3114 57.7833 15.9311C57.3641 16.2 56.8224 16.1998 56.4033 15.9311C55.4365 15.3112 54.246 15.1263 53.1366 15.4236C52.0274 15.7209 51.0887 16.4764 50.5613 17.4965C50.3327 17.9389 49.8623 18.2091 49.3662 18.1866C48.2185 18.133 47.0954 18.5684 46.2834 19.3803C45.4713 20.1924 45.0362 21.316 45.0895 22.4631C45.1127 22.9607 44.8417 23.4298 44.3994 23.6584C43.3793 24.1858 42.6238 25.1243 42.3265 26.2337C42.1846 26.7629 42.1538 27.3106 42.2265 27.8437H17.6874C16.9108 27.8437 16.2812 28.4733 16.2812 29.25C16.2812 30.0266 16.9108 30.6562 17.6874 30.6562H42.945C42.9147 30.7334 42.8797 30.8092 42.8339 30.8807C42.2141 31.8475 42.0291 33.0383 42.3263 34.1475C42.3671 34.2998 42.4173 34.4486 42.475 34.5937H17.687C16.9103 34.5937 16.2808 35.2233 16.2808 36C16.2808 36.7766 16.9103 37.4062 17.687 37.4062H45.0055C45.0667 37.5669 45.0974 37.7403 45.0891 37.9179C45.0358 39.0652 45.4709 40.1888 46.283 41.0009C47.0949 41.8128 48.2181 42.2488 49.3657 42.1946C49.8626 42.1703 50.3323 42.4423 50.5609 42.8847C50.7298 43.2115 50.9414 43.5106 51.1868 43.7768V56.9102C51.1868 57.4783 51.5287 57.9906 52.0532 58.2087C52.5776 58.4268 53.182 58.3079 53.5849 57.9071L57.0931 54.4172L60.6013 57.9071C60.8701 58.1746 61.2286 58.3165 61.5934 58.3165C61.7751 58.3165 61.9584 58.2812 62.1329 58.2086C62.6575 57.9905 62.9993 57.4782 62.9993 56.9101V43.7767C63.2447 43.5106 63.4564 43.2114 63.6253 42.8845C63.8539 42.4421 64.3236 42.1719 64.8204 42.1945C65.9688 42.2488 67.0912 41.8128 67.9032 41.0007C68.7153 40.1886 69.1504 39.065 69.0971 37.9178C69.0739 37.4204 69.3449 36.9513 69.7872 36.7226C70.8073 36.1953 71.5628 35.2568 71.8601 34.1474C72.1574 33.038 71.9723 31.8473 71.3526 30.8804C71.0837 30.4614 71.0837 29.9198 71.3526 29.5006ZM60.1868 53.5277L58.0848 51.4367C57.5362 50.8909 56.6498 50.8909 56.1013 51.4367L53.9993 53.5277V45.0914C54.8407 45.131 55.6839 44.9111 56.4032 44.4501C56.8224 44.1812 57.3641 44.1814 57.7831 44.4501C58.4473 44.8759 59.2171 45.0966 59.9938 45.0966C60.0582 45.0966 60.1224 45.0933 60.1868 45.0902V53.5277ZM69.1434 33.4196C69.0492 33.7713 68.819 34.0572 68.4955 34.2244C67.0803 34.9561 66.2135 36.4571 66.2876 38.0487C66.3046 38.4125 66.172 38.7547 65.9145 39.0123C65.657 39.2698 65.3149 39.402 64.9511 39.3854C63.3586 39.3117 61.8585 40.1779 61.1268 41.5933C60.9596 41.9169 60.6737 42.147 60.3218 42.2412C59.9703 42.3353 59.6075 42.2792 59.301 42.0826C58.6303 41.6525 57.8617 41.4377 57.0929 41.4377C56.3244 41.4377 55.5556 41.6527 54.885 42.0826C54.5784 42.279 54.2158 42.3353 53.8641 42.2412C53.5122 42.147 53.2265 41.9168 53.0591 41.5933C52.3274 40.1781 50.8275 39.311 49.2348 39.3854C48.8719 39.4021 48.5289 39.2698 48.2714 39.0123C48.0138 38.7547 47.8813 38.4125 47.8983 38.0486C47.9505 36.9253 47.5324 35.8484 46.7853 35.054C46.7633 35.0299 46.741 35.0063 46.7174 34.9838C46.4206 34.683 46.0768 34.4243 45.6904 34.2244C45.3669 34.0572 45.1369 33.7715 45.0427 33.4196C44.9484 33.0678 45.0047 32.7051 45.2013 32.3987C46.0612 31.0574 46.0612 29.3241 45.2013 27.9828C45.0048 27.6762 44.9484 27.3136 45.0427 26.9617C45.1369 26.61 45.3671 26.3241 45.6905 26.1569C47.1058 25.4252 47.9724 23.9242 47.8985 22.3326C47.8814 21.9688 48.0141 21.6267 48.2715 21.3691C48.529 21.1114 48.8719 20.9792 49.235 20.996C50.8275 21.0698 52.3277 20.2034 53.0593 18.788C53.2265 18.4645 53.5124 18.2344 53.8642 18.1402C54.2159 18.0461 54.5786 18.1022 54.885 18.2988C56.2264 19.1589 57.9599 19.1589 59.3009 18.2988C59.6075 18.1023 59.97 18.0458 60.3218 18.1402C60.6737 18.2344 60.9594 18.4646 61.1268 18.788C61.8585 20.2033 63.3593 21.0702 64.9511 20.996C65.315 20.9794 65.657 21.1114 65.9145 21.3691C66.1721 21.6267 66.3046 21.9688 66.2876 22.3326C66.2136 23.9241 67.0801 25.4252 68.4957 26.1569C68.8191 26.3241 69.0492 26.6099 69.1434 26.9617C69.2376 27.3136 69.1814 27.6762 68.9848 27.9827C68.1248 29.3239 68.1248 31.0573 68.9848 32.3986C69.1814 32.7051 69.2377 33.0678 69.1434 33.4196Z" fill="black"/>
<path d="M59.4837 13.775C60.6032 13.3112 61.8941 13.6218 62.6802 14.544C63.2389 15.1995 64.0686 15.5608 64.9291 15.5232C66.1397 15.4702 67.2465 16.2036 67.6698 17.339C67.9706 18.1461 68.6268 18.7694 69.4482 19.0283C70.6039 19.3926 71.3932 20.4603 71.4025 21.672C71.4092 22.5333 71.8126 23.3434 72.496 23.8677C73.4574 24.6053 73.8339 25.8785 73.4282 27.0204C73.1399 27.832 73.2419 28.7312 73.7047 29.4576C74.3559 30.4796 74.2742 31.8048 73.5025 32.7391C72.954 33.4031 72.7423 34.283 72.9287 35.1239C73.1911 36.3069 72.6611 37.5243 71.6164 38.1382C70.8738 38.5746 70.374 39.3291 70.2616 40.183C70.1035 41.3844 69.1891 42.3471 67.9974 42.5667C67.1503 42.7228 66.4226 43.2608 66.025 44.0248C65.4655 45.0997 64.277 45.6915 63.082 45.4903C62.2327 45.3473 61.3648 45.604 60.7299 46.1859C59.8365 47.0046 58.5172 47.1543 57.4631 46.5565C56.7139 46.1316 55.8107 46.076 55.0149 46.4056C53.8954 46.8694 52.6045 46.5589 51.8185 45.6366C51.2598 44.9811 50.43 44.6199 49.5695 44.6575C48.3589 44.7104 47.2521 43.9771 46.8288 42.8416C46.528 42.0345 45.8719 41.4113 45.0504 41.1523C43.8947 40.788 43.1054 39.7203 43.0961 38.5086C43.0894 37.6473 42.686 36.8372 42.0027 36.3129C41.0412 35.5753 40.6648 34.3021 41.0704 33.1602C41.3587 32.3486 41.2567 31.4494 40.7939 30.723C40.1427 29.701 40.2244 28.3758 40.9961 27.4416C41.5447 26.7775 41.7563 25.8976 41.5699 25.0568C41.3075 23.8737 41.8375 22.6564 42.8823 22.0424C43.6248 21.606 44.1247 20.8516 44.237 19.9977C44.3951 18.7962 45.3095 17.8336 46.5013 17.6139C47.3483 17.4578 48.076 16.9199 48.4737 16.1559C49.0332 15.0809 50.2216 14.4891 51.4166 14.6903C52.266 14.8333 53.1338 14.5767 53.7688 13.9948C54.6622 13.176 55.9814 13.0263 57.0355 13.6241C57.7847 14.049 58.688 14.1047 59.4837 13.775Z" fill="#F9D14C"/>
<path d="M63.7808 26.3652C63.2317 25.8161 62.3413 25.8161 61.7921 26.3652L57.1246 31.0328L55.2666 29.1748C54.7174 28.6256 53.827 28.6256 53.2777 29.1748C52.7286 29.7239 52.7286 30.6144 53.2777 31.1636L56.1301 34.0161C56.4048 34.2907 56.7646 34.428 57.1245 34.428C57.4844 34.428 57.8444 34.2907 58.1189 34.0161L63.7808 28.3541C64.33 27.8049 64.33 26.9145 63.7808 26.3652Z" fill="black"/>
<path d="M17.1661 17.0058C16.9045 16.7442 16.5417 16.5938 16.1719 16.5938C15.802 16.5938 15.4392 16.7442 15.1777 17.0058C14.9161 17.2673 14.7656 17.6302 14.7656 18C14.7656 18.3698 14.9161 18.7327 15.1777 18.9942C15.4392 19.2558 15.802 19.4062 16.1719 19.4062C16.5417 19.4062 16.9045 19.2558 17.1661 18.9942C17.4277 18.7327 17.5781 18.3698 17.5781 18C17.5781 17.6302 17.4277 17.2673 17.1661 17.0058Z" fill="black"/>
<path d="M28.2647 16.5938H21.4209C20.6442 16.5938 20.0146 17.2233 20.0146 18C20.0146 18.7767 20.6442 19.4062 21.4209 19.4062H28.2647C29.0414 19.4062 29.6709 18.7767 29.6709 18C29.6709 17.2233 29.0414 16.5938 28.2647 16.5938Z" fill="black"/>
<path d="M42.5861 41.3438H26.5095C25.7328 41.3438 25.1033 41.9733 25.1033 42.75C25.1033 43.5267 25.7328 44.1562 26.5095 44.1562H42.5859C43.3626 44.1562 43.9922 43.5267 43.9922 42.75C43.9922 41.9733 43.3627 41.3438 42.5861 41.3438Z" fill="black"/>
</svg>
