<svg width="75" height="65" viewBox="0 0 75 65" fill="none" xmlns="http://www.w3.org/2000/svg">
<path d="M70.4531 50.1082H64.9999V14.2445C64.9999 10.7958 62.2041 8 58.7554 8H12.7563C9.30755 8 6.51176 10.7958 6.51176 14.2445V50.1082H1.54668C0.692589 50.1082 0 50.8008 0 63.2263V55.0706C0 60.0174 4.01031 64.0279 8.95728 64.0279H39.5861C40.4402 64.0279 41.1328 63.3353 41.1328 62.4812C41.1328 61.6271 40.4402 60.9345 39.5861 60.9345H8.95728C5.71869 60.9343 3.09336 58.3092 3.09336 55.0706V53.2015H8.05865H26.3676C26.4225 56.1954 28.8733 58.6147 31.8804 58.6147H38.673C41.6799 58.6147 44.1309 56.1954 44.1858 53.2015H63.4536H68.9069V55.0706C68.9069 58.3092 66.2815 60.9345 63.0429 60.9345H46.8043C45.9502 60.9345 45.2576 61.6271 45.2576 62.4812C45.2576 63.3353 45.9502 64.0279 46.8043 64.0279H63.0427C67.9895 64.0279 72 60.0176 72 55.0706V51.6549C71.9998 50.8006 71.3072 50.1082 70.4531 50.1082ZM38.6728 55.5212H31.8802C30.579 55.5212 29.514 54.4897 29.4605 53.2013H41.0924C41.0389 54.4895 39.9741 55.5212 38.6728 55.5212ZM61.9065 50.1082H9.60533V14.2445C9.60533 12.5068 11.0188 11.0934 12.7565 11.0934H58.7554C60.4931 11.0934 61.9065 12.5068 61.9065 14.2445V50.1082Z" fill="#42454D"/>
<path d="M57.731 13.7926H28.6746C27.8664 13.7926 27.211 14.4487 27.211 15.2579C27.211 16.0671 27.8664 16.7233 28.6746 16.7233H56.2674V44.295H14.9311V16.7231H21.8442C22.6524 16.7231 23.3078 16.0669 23.3078 15.2577C23.3078 14.4485 22.6524 13.7924 21.8442 13.7924H13.4675C12.6593 13.7924 12.0039 14.4485 12.0039 15.2577V45.7602C12.0039 46.5694 12.6593 47.2256 13.4675 47.2256H57.731C58.5392 47.2256 59.1946 46.5694 59.1946 45.7602V15.2579C59.1946 14.4485 58.5394 13.7926 57.731 13.7926Z" fill="#42454D"/>
<path d="M31 6C31 2.68629 33.6863 0 37 0H69C72.3137 0 75 2.68629 75 6V26C75 29.3137 72.3137 32 69 32H52.583C51.2338 32 49.924 32.4547 48.8651 33.2907L43.9821 37.1457C42.7186 38.1432 40.8543 37.3152 40.7473 35.709L40.6245 33.867C40.5544 32.8164 39.6818 32 38.6289 32H37C33.6863 32 31 29.3137 31 26V6Z" fill="#F9D14C"/>
<path d="M46.8 22.68C44.6134 22.68 42.96 21.9734 41.84 20.56C40.72 19.1467 40.16 17.4934 40.16 15.6C40.16 13.68 40.72 12.0267 41.84 10.64C42.96 9.22669 44.6134 8.52002 46.8 8.52002C48.1067 8.52002 49.28 8.89335 50.32 9.64002C51.3867 10.3867 52.2134 11.3467 52.8 12.52C53.3867 11.3467 54.2 10.3867 55.24 9.64002C56.3067 8.89335 57.48 8.52002 58.76 8.52002C60.9734 8.52002 62.64 9.22669 63.76 10.64C64.88 12.0267 65.44 13.68 65.44 15.6C65.44 17.52 64.88 19.1867 63.76 20.6C62.64 21.9867 60.9734 22.68 58.76 22.68C57.48 22.68 56.3067 22.3067 55.24 21.56C54.2 20.8134 53.3867 19.8534 52.8 18.68C52.2134 19.8534 51.3867 20.8134 50.32 21.56C49.28 22.3067 48.1067 22.68 46.8 22.68ZM58.36 19.52C59.4534 19.52 60.3334 19.1734 61 18.48C61.6934 17.76 62.04 16.8 62.04 15.6C62.04 14.4 61.6934 13.44 61 12.72C60.3334 12 59.4534 11.64 58.36 11.64C57.4267 11.64 56.6 12.0134 55.88 12.76C55.1867 13.5067 54.64 14.4534 54.24 15.6C54.64 16.7467 55.1867 17.6934 55.88 18.44C56.6 19.16 57.4267 19.52 58.36 19.52ZM47.28 19.56C48.2134 19.56 49.0267 19.1867 49.72 18.44C50.4134 17.6934 50.96 16.7467 51.36 15.6C50.96 14.4534 50.4134 13.5067 49.72 12.76C49.0267 12.0134 48.2134 11.64 47.28 11.64C46.16 11.64 45.2534 12 44.56 12.72C43.8667 13.44 43.52 14.4 43.52 15.6C43.52 16.7734 43.8667 17.7334 44.56 18.48C45.28 19.2 46.1867 19.56 47.28 19.56Z" fill="#42454D"/>
</svg>
