<svg width="72" height="72" viewBox="0 0 72 72" fill="none" xmlns="http://www.w3.org/2000/svg">
<path d="M52 2.5C47.2 2.5 46 6.83333 46 9C47.5 9.5 51.5 10.5 55.5 10.5C59.5 10.5 60.1667 5.16667 60 2.5H52Z" fill="#F9D14C"/>
<path d="M18 33.5C13.2 33.5 12 37.8333 12 40C13.5 40.5 17.5 41.5 21.5 41.5C25.5 41.5 26.1667 36.1667 26 33.5H18Z" fill="#F9D14C"/>
<path d="M25.5544 51.5832C25.4527 51.5543 25.3486 51.538 25.2439 51.5323C26.7843 49.9133 27.7329 47.7262 27.7329 45.3204V37.922C27.7329 37.8543 27.7265 37.7884 27.7173 37.7234C27.7266 37.5898 27.7329 37.4554 27.7329 37.3195V32.6387C27.7329 31.862 27.1034 31.2324 26.3267 31.2324H16.8945C12.9226 31.2324 9.69131 34.4638 9.69131 38.4357V45.3204C9.69131 47.7262 10.6398 49.9133 12.1804 51.5323C12.0757 51.538 11.9717 51.5543 11.8702 51.5832C5.22464 52.185 0 57.7862 0 64.5857V70.5938C0 71.3704 0.629578 72 1.40625 72H36.0179C36.7945 72 37.4241 71.3704 37.4241 70.5938V64.5857C37.4241 57.7864 32.1997 52.1851 25.5544 51.5832ZM12.5038 40.2189V38.4355C12.5038 36.0145 14.4735 34.0448 16.8945 34.0448H24.9204V37.3194C24.9204 38.9679 23.5793 40.3091 21.9307 40.3091H12.5038V40.2189ZM12.5038 43.1216H21.9307C23.0237 43.1216 24.0467 42.8175 24.9204 42.2899V45.3202C24.9204 48.7435 22.1354 51.5285 18.7121 51.5285C15.2889 51.5285 12.5038 48.7435 12.5038 45.3202V43.1216ZM21.7728 54.3412L18.7121 57.402L15.6514 54.3412H21.7728ZM34.6117 69.1875H2.8125V66.375H8.64844C9.42511 66.375 10.0547 65.7454 10.0547 64.9688C10.0547 64.1921 9.42511 63.5625 8.64844 63.5625H2.86383C3.33619 58.8212 7.0553 55.0242 11.7591 54.4263L17.7178 60.385C17.9814 60.6486 18.3392 60.7969 18.7121 60.7969C19.0851 60.7969 19.4428 60.6486 19.7065 60.385L25.6652 54.4263C30.7029 55.0665 34.6117 59.3768 34.6117 64.5857V69.1875Z" fill="black"/>
<path d="M60.1306 20.351C60.0289 20.322 59.9247 20.3057 59.8198 20.3001C61.3602 18.681 62.3087 16.4939 62.3087 14.0881V6.68953C62.3087 6.62189 62.3023 6.55594 62.2931 6.49097C62.3024 6.35737 62.3087 6.22294 62.3087 6.08709V1.40625C62.3087 0.629578 61.6792 0 60.9025 0H51.4704C47.4984 0 44.2671 3.23142 44.2671 7.20323V14.0879C44.2671 16.4938 45.2156 18.6809 46.756 20.2999C46.6513 20.3055 46.5469 20.3219 46.4453 20.3508C39.8 20.9528 34.5758 26.5541 34.5758 33.3533V39.3612C34.5758 40.1379 35.2054 40.7675 35.9821 40.7675H47.2967C48.0734 40.7675 48.703 40.1379 48.703 39.3612C48.703 38.5845 48.0734 37.955 47.2967 37.955H37.3883V33.3534C37.3883 28.1445 41.297 23.8342 46.3347 23.194L52.2934 29.1527C52.5681 29.4273 52.9279 29.5646 53.2878 29.5646C53.6476 29.5646 54.0077 29.4273 54.2822 29.1527L60.2409 23.194C65.2789 23.8344 69.1876 28.1445 69.1876 33.3534V37.9551H58.8281C58.0515 37.9551 57.4219 38.5847 57.4219 39.3614C57.4219 40.138 58.0515 40.7676 58.8281 40.7676H70.5938C71.3705 40.7676 72 40.138 72 39.3614V33.3534C72 26.5542 66.7757 20.953 60.1306 20.351ZM53.2881 26.1696L50.2274 23.1089H56.3488L53.2881 26.1696ZM59.4964 14.0879C59.4964 17.5112 56.7113 20.2963 53.2881 20.2963C49.8648 20.2963 47.0798 17.5113 47.0798 14.0881V11.8893H56.5067C57.5996 11.8893 58.6227 11.5851 59.4964 11.0576V14.0879ZM59.4964 6.08709C59.4964 7.73564 58.1552 9.07678 56.5067 9.07678H47.0798V8.98664V7.20323C47.0798 4.78223 49.0495 2.8125 51.4705 2.8125H59.4964V6.08709Z" fill="black"/>
<path d="M54.2827 38.3666C54.0211 38.1051 53.6583 37.9546 53.2885 37.9546C52.9172 37.9546 52.5558 38.1051 52.2942 38.3666C52.0313 38.6282 51.8822 38.991 51.8822 39.3608C51.8822 39.7321 52.0313 40.0935 52.2942 40.3551C52.5558 40.618 52.9172 40.7671 53.2885 40.7671C53.6583 40.7671 54.0211 40.618 54.2827 40.3551C54.5442 40.0935 54.6947 39.7321 54.6947 39.3608C54.6947 38.991 54.5442 38.6282 54.2827 38.3666Z" fill="black"/>
<path d="M37.6038 19.6775L31.7227 13.7964V7.03125C31.7227 3.15422 28.5685 0 24.6915 0H7.03125C3.15422 0 0 3.15422 0 7.03125V19.4062C0 23.2833 3.15422 26.4375 7.03125 26.4375H24.6914C27.5986 26.4375 30.1338 24.6928 31.1975 22.0781H36.6093C37.178 22.0781 37.6909 21.7354 37.9086 21.21C38.1262 20.6847 38.0059 20.0797 37.6038 19.6775Z" fill="#F9D14C"/>
<path d="M64.9688 45.5625H47.3087C44.4014 45.5625 41.8662 47.3072 40.8025 49.9219H35.3907C34.822 49.9219 34.3092 50.2646 34.0915 50.79C33.8738 51.3153 33.9942 51.9203 34.3962 52.3225L40.2773 58.2036V64.9687C40.2773 68.8458 43.4315 72 47.3085 72H64.9688C68.8458 72 72 68.8458 72 64.9687V52.5937C72 48.7167 68.8458 45.5625 64.9688 45.5625ZM69.1875 64.9687C69.1875 67.295 67.295 69.1875 64.9688 69.1875H47.3087C44.9825 69.1875 43.0899 67.295 43.0899 64.9687V57.6211C43.0899 57.2482 42.9417 56.8904 42.678 56.6267L38.7857 52.7344H41.8284C42.4835 52.7344 43.052 52.282 43.1989 51.6434C43.6416 49.7191 45.3315 48.375 47.3087 48.375H64.9688C67.295 48.375 69.1875 50.2675 69.1875 52.5937V64.9687Z" fill="black"/>
<path d="M62.4594 55.0395C61.9104 54.4904 61.02 54.4904 60.4708 55.0395L56.7326 58.7778L54.9943 57.0395C54.4452 56.4904 53.5548 56.4904 53.0055 57.0395C52.4563 57.5887 52.4563 58.4791 53.0055 59.0284L55.7381 61.761C56.0127 62.0356 56.3726 62.1729 56.7325 62.1729C57.0923 62.1729 57.4523 62.0356 57.7268 61.761L62.4594 57.0284C63.0086 56.4793 63.0086 55.5888 62.4594 55.0395Z" fill="black"/>
<path d="M20.2543 9.31888C20.0881 6.90759 18.1444 4.96387 15.7331 4.79765C14.3658 4.70357 13.0625 5.16482 12.064 6.09688C11.0795 7.01587 10.5148 8.31524 10.5148 9.66159C10.5149 10.4384 11.1445 11.068 11.9212 11.068C12.6978 11.068 13.3274 10.4384 13.3274 9.66173C13.3274 9.08362 13.5603 8.54784 13.9833 8.15296C14.4056 7.75865 14.9589 7.5629 15.5399 7.60368C16.5578 7.67385 17.3784 8.4944 17.4486 9.51238C17.5196 10.5416 16.8449 11.4512 15.8443 11.6751C14.7491 11.92 13.9843 12.8722 13.9843 13.9904V14.7407C13.9843 15.5174 14.6138 16.1469 15.3905 16.1469C16.1672 16.1469 16.7968 15.5174 16.7968 14.7407V14.3315C18.9756 13.6815 20.4135 11.6274 20.2543 9.31888Z" fill="black"/>
<path d="M16.3853 19.1279C16.1238 18.8663 15.761 18.7158 15.3911 18.7158C15.0199 18.7158 14.6585 18.8663 14.3969 19.1279C14.1339 19.3894 13.9849 19.7522 13.9849 20.1221C13.9849 20.4919 14.1339 20.8547 14.3969 21.1163C14.6585 21.3779 15.0199 21.5283 15.3911 21.5283C15.761 21.5283 16.1238 21.3779 16.3853 21.1163C16.6469 20.8547 16.7974 20.4919 16.7974 20.1221C16.7974 19.7522 16.6469 19.3894 16.3853 19.1279Z" fill="black"/>
<path d="M15.2677 63.9745C15.0061 63.713 14.6433 63.5625 14.2734 63.5625C13.9036 63.5625 13.5408 63.713 13.2792 63.9745C13.0177 64.2361 12.8672 64.5989 12.8672 64.9687C12.8672 65.3386 13.0177 65.7014 13.2792 65.963C13.5408 66.2245 13.9036 66.375 14.2734 66.375C14.6433 66.375 15.0061 66.2245 15.2677 65.963C15.5292 65.7014 15.6797 65.3386 15.6797 64.9687C15.6797 64.5989 15.5292 64.2361 15.2677 63.9745Z" fill="black"/>
</svg>
