<svg width="162" height="82" viewBox="0 0 162 82" fill="none" xmlns="http://www.w3.org/2000/svg">
<path d="M11.1825 56.5565L0 0H12.7047L17.1543 30.2689H18.3253L23.1261 0H31.8496L36.4163 30.2689H37.4702L41.9198 0H54.7416L44.2031 56.5565H33.3719L27.8099 25.8193L21.8966 56.5565H11.1825Z" fill="white"/>
<path d="M58.3129 56.6151V0H85.2446V11.768H70.7249V22.1308H83.5467V33.9573H70.7249V44.9642H85.2446V56.6151H58.3129Z" fill="white"/>
<path d="M124.354 56.6152L137.527 0.409912H148.417L162 56.6152H149.354L143.265 22.9506H142.328L136.532 56.6152H124.354Z" fill="white"/>
<path d="M146.778 39.3438H138.64L136.942 49.2968H148.885L146.778 39.3438Z" fill="white"/>
<path fill-rule="evenodd" clip-rule="evenodd" d="M89.9869 56.5564V0.175537H107.785C113.64 0.175537 122.188 2.81016 122.188 13.6999C122.188 22.4117 117.699 26.6193 115.455 27.6341C117.953 28.2196 122.949 31.5217 122.949 40.0461C122.949 50.7017 117.328 56.5564 109.6 56.5564H89.9869ZM102.692 22.4236V11.651H105.034C106.79 11.651 109.483 12.9975 109.483 17.1544C109.483 21.3112 106.322 22.4236 105.034 22.4236H102.692ZM102.692 33.9574V45.7839H105.276C106.697 45.7839 110.186 44.5627 110.186 39.9992C110.186 35.4357 107.214 33.9574 105.276 33.9574H102.692Z" fill="white"/>
<path d="M10.5605 76.5776C10.5605 76.0723 10.4763 75.613 10.3079 75.1997C10.1471 74.7863 9.93276 74.4265 9.66484 74.1203C9.39691 73.8141 9.08306 73.5806 8.72328 73.4199C8.36349 73.2515 7.99605 73.1673 7.62096 73.1673C7.24586 73.1673 6.87842 73.2515 6.51864 73.4199C6.15885 73.5806 5.845 73.8141 5.57708 74.1203C5.30915 74.4265 5.09098 74.7901 4.92257 75.2111C4.76182 75.6245 4.68144 76.08 4.68144 76.5776C4.68144 77.0828 4.76182 77.5421 4.92257 77.9555C5.09098 78.3688 5.30915 78.7286 5.57708 79.0348C5.845 79.341 6.15885 79.5783 6.51864 79.7467C6.87842 79.9075 7.24586 79.9879 7.62096 79.9879C7.99605 79.9879 8.36349 79.9075 8.72328 79.7467C9.08306 79.5783 9.39691 79.341 9.66484 79.0348C9.93276 78.7286 10.1471 78.3688 10.3079 77.9555C10.4763 77.5421 10.5605 77.0828 10.5605 76.5776ZM12.6733 76.5776C12.6733 77.3737 12.5431 78.1047 12.2828 78.7707C12.0302 79.429 11.6704 79.9993 11.2035 80.4816C10.7442 80.9562 10.2083 81.3275 9.59594 81.5954C8.98355 81.8557 8.32522 81.9858 7.62096 81.9858C6.9167 81.9858 6.25837 81.8557 5.64597 81.5954C5.03357 81.3275 4.49389 80.9562 4.02694 80.4816C3.56764 79.9993 3.20786 79.429 2.94759 78.7707C2.69497 78.1124 2.56866 77.3813 2.56866 76.5776C2.56866 75.7814 2.69497 75.0542 2.94759 74.3959C3.20786 73.7376 3.56764 73.1711 4.02694 72.6965C4.49389 72.2142 5.03357 71.8391 5.64597 71.5712C6.25837 71.3033 6.9167 71.1693 7.62096 71.1693C8.32522 71.1693 8.98355 71.3033 9.59594 71.5712C10.2083 71.8391 10.7442 72.2142 11.2035 72.6965C11.6704 73.1711 12.0302 73.7376 12.2828 74.3959C12.5431 75.0542 12.6733 75.7814 12.6733 76.5776Z" fill="white"/>
<path d="M24.2017 71.2841V81.871H22.0889V73.2821H17.0251V81.871H14.9123V71.2841H24.2017Z" fill="white"/>
<path d="M25.9585 71.2841H34.6507V73.2821H31.3667V81.871H29.2425V73.2821H25.9585V71.2841Z" fill="white"/>
<path d="M45.7198 71.2841V81.871H43.6071V74.4648L38.5433 81.871H36.4305V71.2841H38.5433V78.7018L43.6071 71.2841H45.7198Z" fill="white"/>
<path d="M57.1105 71.2841V81.871H54.9977V78.1047C54.7298 78.2425 54.4465 78.3612 54.148 78.4607C53.8801 78.5525 53.5662 78.6368 53.2064 78.7133C52.8466 78.7822 52.4639 78.8166 52.0582 78.8166C51.4917 78.8166 50.9788 78.7286 50.5195 78.5525C50.0602 78.3688 49.666 78.1047 49.3368 77.7603C49.0077 77.4158 48.7512 77.0101 48.5675 76.5431C48.3838 76.0685 48.2919 75.5327 48.2919 74.9356V71.2841H50.4162V74.9356C50.4162 75.5327 50.6037 76.0149 50.9788 76.3824C51.3539 76.7498 51.8706 76.9335 52.529 76.9335C52.8887 76.9335 53.2179 76.8991 53.5164 76.8302C53.815 76.7536 54.0753 76.6694 54.2973 76.5776C54.5652 76.4857 54.7987 76.367 54.9977 76.2216V71.2841H57.1105Z" fill="white"/>
<path d="M69.1211 78.8166C68.9451 79.253 68.7231 79.6625 68.4552 80.0453C68.1872 80.428 67.8657 80.7648 67.4906 81.0557C67.1155 81.3466 66.6792 81.5763 66.1816 81.7447C65.6917 81.9054 65.1405 81.9858 64.5281 81.9858C63.8239 81.9858 63.1656 81.8557 62.5532 81.5954C61.9408 81.3275 61.4049 80.9562 60.9456 80.4816C60.4863 79.9993 60.1265 79.429 59.8663 78.7707C59.606 78.1124 59.4759 77.3813 59.4759 76.5776C59.4759 75.7814 59.606 75.0542 59.8663 74.3959C60.1265 73.7376 60.4787 73.1711 60.9226 72.6965C61.3666 72.2142 61.891 71.8391 62.4958 71.5712C63.1005 71.3033 63.7397 71.1693 64.4133 71.1693C65.087 71.1693 65.7262 71.3033 66.3309 71.5712C66.9356 71.8391 67.46 72.2142 67.904 72.6965C68.348 73.1711 68.7001 73.7376 68.9604 74.3959C69.2207 75.0542 69.3508 75.7814 69.3508 76.5776C69.3508 76.7 69.3431 76.8225 69.3278 76.945C69.3125 77.0598 69.2972 77.1593 69.2819 77.2435C69.2666 77.3507 69.2513 77.4426 69.236 77.5191H61.7035C61.7341 77.8483 61.8298 78.1621 61.9905 78.4607C62.1513 78.7592 62.3503 79.0233 62.5876 79.253C62.8326 79.475 63.1235 79.6549 63.4603 79.7927C63.7971 79.9228 64.1531 79.9879 64.5281 79.9879C65.1712 79.9879 65.6802 79.8501 66.0553 79.5745C66.4381 79.2989 66.7136 79.0463 66.8821 78.8166H69.1211ZM64.4133 73.1673C63.7091 73.1673 63.112 73.4084 62.6221 73.8907C62.1398 74.3653 61.8336 74.9892 61.7035 75.7623H67.3528C67.2304 74.9968 66.9165 74.3729 66.4113 73.8907C65.9137 73.4084 65.2477 73.1673 64.4133 73.1673Z" fill="white"/>
<path d="M80.7644 77.9899C80.6419 78.5564 80.4467 79.0846 80.1788 79.5745C79.9109 80.0568 79.5702 80.4778 79.1568 80.8376C78.7511 81.1973 78.2842 81.4806 77.756 81.6873C77.2354 81.8863 76.669 81.9858 76.0566 81.9858C75.3523 81.9858 74.694 81.8557 74.0816 81.5954C73.4692 81.3275 72.9295 80.9562 72.4625 80.4816C72.0032 79.9993 71.6435 79.429 71.3832 78.7707C71.1306 78.1124 71.0043 77.3813 71.0043 76.5776C71.0043 75.7814 71.1306 75.0542 71.3832 74.3959C71.6435 73.7376 72.0032 73.1711 72.4625 72.6965C72.9295 72.2142 73.4692 71.8391 74.0816 71.5712C74.694 71.3033 75.3523 71.1693 76.0566 71.1693C76.669 71.1693 77.2354 71.2727 77.756 71.4793C78.2842 71.6784 78.7511 71.9616 79.1568 72.329C79.5702 72.6888 79.907 73.1137 80.1673 73.6036C80.4352 74.0859 80.6342 74.6064 80.7644 75.1652H78.5253C78.3492 74.5681 78.0583 74.0859 77.6526 73.7184C77.2469 73.351 76.7149 73.1673 76.0566 73.1673C75.6815 73.1673 75.314 73.2515 74.9542 73.4199C74.5945 73.5806 74.2806 73.8141 74.0127 74.1203C73.7448 74.4265 73.5266 74.7901 73.3582 75.2111C73.1974 75.6245 73.1171 76.08 73.1171 76.5776C73.1171 77.0828 73.1974 77.5421 73.3582 77.9555C73.5266 78.3688 73.7448 78.7286 74.0127 79.0348C74.2806 79.341 74.5945 79.5783 74.9542 79.7467C75.314 79.9075 75.6815 79.9879 76.0566 79.9879C76.7149 79.9879 77.2469 79.8041 77.6526 79.4367C78.066 79.0693 78.3569 78.587 78.5253 77.9899H80.7644Z" fill="white"/>
<path d="M89.2385 81.871L85.1162 76.8187V81.871H83.0035V71.2841H85.1162V75.8771L88.7677 71.2841H91.2364L87.1257 76.2216L91.822 81.871H89.2385Z" fill="white"/>
<path d="M97.104 71.1693C97.7164 71.1693 98.2752 71.2688 98.7804 71.4679C99.2933 71.6592 99.7296 71.9233 100.089 72.2601C100.449 72.597 100.729 72.995 100.928 73.4543C101.127 73.906 101.226 74.3997 101.226 74.9356V81.871H99.699L99.2282 80.8146C99.0215 81.0366 98.7766 81.2318 98.4933 81.4002C98.2407 81.5533 97.923 81.6911 97.5403 81.8136C97.1575 81.9284 96.6982 81.9858 96.1624 81.9858C94.9835 81.9858 94.0802 81.6949 93.4525 81.1131C92.8325 80.5237 92.5224 79.7582 92.5224 78.8166C92.5224 78.2808 92.622 77.7985 92.821 77.3699C93.0277 76.9335 93.376 76.5661 93.8659 76.2675C94.3635 75.9613 95.0333 75.724 95.8753 75.5556C96.725 75.3796 97.8006 75.2915 99.1019 75.2915V74.9356C99.1019 74.3997 98.9335 73.971 98.5967 73.6495C98.2599 73.328 97.7623 73.1673 97.104 73.1673C96.3997 73.1673 95.8868 73.2936 95.5653 73.5462C95.2438 73.7988 95.0524 74.105 94.9912 74.4648H92.8784C92.9396 73.5232 93.3339 72.7386 94.0611 72.1109C94.7883 71.4832 95.8026 71.1693 97.104 71.1693ZM96.2887 80.1027C97.1843 80.1027 97.8771 79.873 98.367 79.4137C98.8569 78.9544 99.1019 78.3956 99.1019 77.7373V77.1632C98.1603 77.1632 97.3987 77.2091 96.8169 77.301C96.2428 77.3852 95.7911 77.5038 95.462 77.6569C95.1328 77.8024 94.9108 77.9861 94.796 78.2081C94.6888 78.4224 94.6352 78.6635 94.6352 78.9315C94.6352 79.23 94.7768 79.5018 95.0601 79.7467C95.3433 79.984 95.7529 80.1027 96.2887 80.1027Z" fill="white"/>
<path d="M112.031 71.2841V81.871H109.918V78.3459H107.806L105.567 81.871H103.213L105.681 77.9899C105.276 77.8368 104.924 77.6186 104.625 77.3354C104.357 77.0828 104.112 76.7575 103.89 76.3594C103.676 75.9613 103.569 75.4485 103.569 74.8207C103.569 74.3155 103.657 73.8486 103.833 73.4199C104.016 72.9835 104.269 72.6123 104.591 72.3061C104.912 71.9922 105.295 71.7434 105.739 71.5597C106.19 71.376 106.684 71.2841 107.22 71.2841H112.031ZM107.22 73.2821C106.814 73.2821 106.455 73.4352 106.141 73.7414C105.834 74.0476 105.681 74.4074 105.681 74.8207C105.681 75.2265 105.834 75.5824 106.141 75.8886C106.447 76.1948 106.807 76.3479 107.22 76.3479H109.918V73.2821H107.22Z" fill="white"/>
<path d="M129.198 77.9899C129.075 78.5564 128.88 79.0846 128.612 79.5745C128.344 80.0568 128.003 80.4778 127.59 80.8376C127.184 81.1973 126.717 81.4806 126.189 81.6873C125.669 81.8863 125.102 81.9858 124.49 81.9858C123.785 81.9858 123.127 81.8557 122.515 81.5954C121.902 81.3275 121.363 80.9562 120.896 80.4816C120.436 79.9993 120.077 79.429 119.816 78.7707C119.564 78.1124 119.437 77.3813 119.437 76.5776C119.437 75.7814 119.564 75.0542 119.816 74.3959C120.077 73.7376 120.436 73.1711 120.896 72.6965C121.363 72.2142 121.902 71.8391 122.515 71.5712C123.127 71.3033 123.785 71.1693 124.49 71.1693C125.102 71.1693 125.669 71.2727 126.189 71.4793C126.717 71.6784 127.184 71.9616 127.59 72.329C128.003 72.6888 128.34 73.1137 128.6 73.6036C128.868 74.0859 129.067 74.6064 129.198 75.1652H126.958C126.782 74.5681 126.491 74.0859 126.086 73.7184C125.68 73.351 125.148 73.1673 124.49 73.1673C124.115 73.1673 123.747 73.2515 123.387 73.4199C123.028 73.5806 122.714 73.8141 122.446 74.1203C122.178 74.4265 121.96 74.7901 121.791 75.2111C121.631 75.6245 121.55 76.08 121.55 76.5776C121.55 77.0828 121.631 77.5421 121.791 77.9555C121.96 78.3688 122.178 78.7286 122.446 79.0348C122.714 79.341 123.028 79.5783 123.387 79.7467C123.747 79.9075 124.115 79.9879 124.49 79.9879C125.148 79.9879 125.68 79.8041 126.086 79.4367C126.499 79.0693 126.79 78.587 126.958 77.9899H129.198Z" fill="white"/>
<path d="M140.267 78.8166C140.091 79.253 139.869 79.6625 139.601 80.0453C139.333 80.428 139.011 80.7648 138.636 81.0557C138.261 81.3466 137.825 81.5763 137.327 81.7447C136.837 81.9054 136.286 81.9858 135.674 81.9858C134.969 81.9858 134.311 81.8557 133.699 81.5954C133.086 81.3275 132.55 80.9562 132.091 80.4816C131.632 79.9993 131.272 79.429 131.012 78.7707C130.751 78.1124 130.621 77.3813 130.621 76.5776C130.621 75.7814 130.751 75.0542 131.012 74.3959C131.272 73.7376 131.624 73.1711 132.068 72.6965C132.512 72.2142 133.036 71.8391 133.641 71.5712C134.246 71.3033 134.885 71.1693 135.559 71.1693C136.232 71.1693 136.872 71.3033 137.476 71.5712C138.081 71.8391 138.605 72.2142 139.049 72.6965C139.493 73.1711 139.846 73.7376 140.106 74.3959C140.366 75.0542 140.496 75.7814 140.496 76.5776C140.496 76.7 140.489 76.8225 140.473 76.945C140.458 77.0598 140.443 77.1593 140.427 77.2435C140.412 77.3507 140.397 77.4426 140.381 77.5191H132.849C132.88 77.8483 132.975 78.1621 133.136 78.4607C133.297 78.7592 133.496 79.0233 133.733 79.253C133.978 79.475 134.269 79.6549 134.606 79.7927C134.943 79.9228 135.299 79.9879 135.674 79.9879C136.317 79.9879 136.826 79.8501 137.201 79.5745C137.584 79.2989 137.859 79.0463 138.028 78.8166H140.267ZM135.559 73.1673C134.855 73.1673 134.257 73.4084 133.768 73.8907C133.285 74.3653 132.979 74.9892 132.849 75.7623H138.498C138.376 74.9968 138.062 74.3729 137.557 73.8907C137.059 73.4084 136.393 73.1673 135.559 73.1673Z" fill="white"/>
<path d="M141.564 71.2841H150.256V73.2821H146.972V81.871H144.848V73.2821H141.564V71.2841Z" fill="white"/>
<path d="M156.732 74.8207C157.268 74.8207 157.758 74.9126 158.202 75.0963C158.654 75.2724 159.04 75.5173 159.362 75.8312C159.684 76.1451 159.932 76.5163 160.108 76.945C160.292 77.3737 160.384 77.8406 160.384 78.3459C160.384 78.8511 160.292 79.318 160.108 79.7467C159.932 80.1754 159.684 80.5467 159.362 80.8605C159.04 81.1744 158.654 81.4232 158.202 81.6069C157.758 81.783 157.268 81.871 156.732 81.871H152.036V71.2841H154.149V74.8207H156.732ZM156.732 79.873C157.138 79.873 157.494 79.7199 157.8 79.4137C158.114 79.1075 158.271 78.7516 158.271 78.3459C158.271 77.9401 158.118 77.5842 157.812 77.278C157.506 76.9718 157.146 76.8187 156.732 76.8187H154.149V79.873H156.732Z" fill="white"/>
</svg>
