<?xml version="1.0" encoding="utf-8"?><svg xmlns="http://www.w3.org/2000/svg" xmlns:xlink="http://www.w3.org/1999/xlink"><symbol id="icon-team" viewBox="0 0 72 72" fill="none" xmlns="http://www.w3.org/2000/svg"> <path d="M35 36.5C30.2 36.5 29 40.8333 29 43C30.5 43.5 34.5 44.5 38.5 44.5C42.5 44.5 43.1667 39.1667 43 36.5H35Z" fill="#F9D14C"/> <path d="M12.7066 45C8.94131 45 8 48.25 8 49.875C9.17664 50.25 12.3144 51 15.4521 51C18.5898 51 19.1127 47 18.982 45H12.7066Z" fill="#F9D14C"/> <path d="M58.7066 45C54.9413 45 54 48.25 54 49.875C55.1766 50.25 58.3144 51 61.4521 51C64.5898 51 65.1127 47 64.982 45H58.7066Z" fill="#F9D14C"/> <path d="M64.3141 57.3801C65.0859 56.3136 65.5425 55.0048 65.5425 53.5908V45.1406C65.5425 44.364 64.9128 43.7344 64.1362 43.7344H57.8514C54.9461 43.7344 52.5825 46.098 52.5825 49.0033V53.5908C52.5825 55.0039 53.0385 56.3117 53.8093 57.378C52.848 57.5339 51.9231 57.8419 51.0605 58.2927C49.1067 55.3773 45.9056 53.3666 42.2272 53.0274C42.2128 53.0234 42.1982 53.0204 42.1837 53.0169C43.4998 51.5472 44.3021 49.6083 44.3021 47.4848V36C44.3021 35.2233 43.6724 34.5938 42.8958 34.5938H34.354C30.6838 34.5938 27.6979 37.5796 27.6979 41.2498V47.4847C27.6979 49.6081 28.5002 51.5471 29.8163 53.0168C29.8018 53.0203 29.7872 53.0234 29.7728 53.0273C26.094 53.3665 22.8928 55.3774 20.9391 58.2933C20.0762 57.8426 19.1512 57.5343 18.1903 57.3784C18.9612 56.3122 19.4175 55.0041 19.4175 53.5908V45.1406C19.4175 44.364 18.7878 43.7344 18.0112 43.7344H11.7264C8.82113 43.7344 6.4575 46.098 6.4575 49.0033V53.5908C6.4575 55.0049 6.91411 56.3136 7.68586 57.3801C3.33309 58.0915 0 61.877 0 66.4277V70.5938C0 71.3704 0.629719 72 1.40625 72H70.5938C71.3703 72 72 71.3704 72 70.5938V66.4277C72 61.877 68.6669 58.0915 64.3141 57.3801ZM9.27 49.0033C9.27 47.6488 10.3719 46.5469 11.7264 46.5469H16.605V48.2595C16.605 49.0994 15.9218 49.7825 15.0822 49.7825H9.27V49.0033ZM9.27 52.5949H15.0822C15.618 52.5949 16.131 52.4966 16.605 52.318V53.5908C16.605 55.613 14.9598 57.2583 12.9375 57.2583C10.9152 57.2583 9.27 55.613 9.27 53.5908V52.5949ZM13.8441 60.0708L12.9375 60.9774L12.0309 60.0708H13.8441ZM18.9214 64.9316V69.1875H2.8125V66.4277C2.8125 63.2737 5.12198 60.6499 8.13839 60.1557L11.9431 63.9605C12.207 64.2241 12.5646 64.3724 12.9375 64.3724C13.3104 64.3724 13.668 64.2241 13.9319 63.9605L17.7377 60.1545C18.4099 60.2639 19.0564 60.4806 19.6588 60.7975C19.1824 62.0865 18.9214 63.4791 18.9214 64.9316ZM36.0001 52.9744C32.9732 52.9744 30.5106 50.5118 30.5106 47.4848V45.6262H38.9149C39.8468 45.6262 40.7243 45.3881 41.4897 44.9699V47.4848C41.4897 50.5118 39.0271 52.9744 36.0001 52.9744ZM38.4514 55.7868L36 58.2382L33.5486 55.7868H38.4514ZM30.5103 41.2498H30.5104C30.5104 39.1305 32.2346 37.4062 34.354 37.4062H41.4896V40.239C41.4896 41.6588 40.3345 42.8138 38.9147 42.8138H30.5103V41.2498ZM50.266 69.1875H47.5312H24.4688H21.734V66.375H30.8907C31.6672 66.375 32.2969 65.7454 32.2969 64.9688C32.2969 64.1921 31.6672 63.5625 30.8907 63.5625H21.8368C22.4395 59.5658 25.6388 56.4109 29.6554 55.871L35.0056 61.2212C35.2803 61.4959 35.6401 61.6331 36 61.6331C36.3599 61.6331 36.7197 61.4959 36.9944 61.2212L42.3446 55.871C46.8103 56.4712 50.266 60.3042 50.266 64.9316V69.1875ZM55.395 49.0033C55.395 47.6488 56.4969 46.5469 57.8514 46.5469H62.73V48.2595C62.73 49.0994 62.0468 49.7825 61.2072 49.7825H55.395V49.0033ZM55.395 52.5949H61.2072C61.743 52.5949 62.256 52.4966 62.73 52.318V53.5908C62.73 55.613 61.0848 57.2583 59.0625 57.2583C57.0402 57.2583 55.395 55.613 55.395 53.5908V52.5949ZM59.9691 60.0708L59.0625 60.9774L58.1559 60.0708H59.9691ZM53.0785 69.1875V64.9316C53.0785 63.479 52.8175 62.0864 52.3409 60.7972C52.9431 60.48 53.5894 60.2634 54.2617 60.1542L58.068 63.9605C58.3318 64.2241 58.6894 64.3724 59.0624 64.3724C59.4353 64.3724 59.7929 64.2241 60.0567 63.9605L63.8615 60.1557C66.8779 60.65 69.1874 63.2737 69.1874 66.4277V69.1875H53.0785Z" fill="black"/> <path d="M42.9306 9.18822C42.3813 8.63908 41.4911 8.63908 40.9417 9.18822L34.0412 16.0888L31.0582 13.1058C30.5089 12.5565 29.6187 12.5565 29.0694 13.1056C28.5203 13.6548 28.5203 14.5452 29.0694 15.0945L33.0469 19.0719C33.3107 19.3356 33.6683 19.4838 34.0412 19.4838C34.4142 19.4838 34.7718 19.3356 35.0356 19.0719L42.9306 11.1769C43.4797 10.6278 43.4797 9.73736 42.9306 9.18822Z" fill="black"/> <path d="M41.7498 1.21942C41.0407 0.903154 40.2091 1.22167 39.8927 1.93098C39.5763 2.64029 39.895 3.47181 40.6043 3.78808C44.6823 5.60678 47.3173 9.6662 47.3173 14.1299C47.3173 20.3703 42.2403 25.4473 36 25.4473C29.7596 25.4473 24.6826 20.3703 24.6826 14.1299C24.6826 9.68926 27.2986 5.63828 31.3472 3.80973C32.055 3.49009 32.3697 2.65703 32.0499 1.94926C31.7303 1.24136 30.8968 0.926779 30.1896 1.24642C25.1358 3.52904 21.8702 8.58606 21.8702 14.1298C21.8701 21.9211 28.2088 28.2598 36 28.2598C43.7911 28.2598 50.1298 21.9211 50.1298 14.1299C50.1298 8.55737 46.8405 3.48967 41.7498 1.21942Z" fill="black"/> <path d="M36.0503 0H36C35.2235 0 34.5938 0.629578 34.5938 1.40625C34.5938 2.18292 35.2235 2.8125 36 2.8125H36.0371C36.0394 2.8125 36.0415 2.8125 36.0439 2.8125C36.8175 2.8125 37.4463 2.18728 37.45 1.41286C37.4536 0.636188 36.827 0.00365625 36.0503 0Z" fill="black"/> <path d="M36.9941 63.9745C36.7327 63.713 36.3698 63.5625 36 63.5625C35.6302 63.5625 35.2673 63.713 35.0058 63.9745C34.7442 64.2361 34.5938 64.5989 34.5938 64.9688C34.5938 65.3386 34.7441 65.7014 35.0058 65.963C35.2675 66.2245 35.6302 66.375 36 66.375C36.3698 66.375 36.7327 66.2245 36.9941 65.963C37.2556 65.7014 37.4062 65.3386 37.4062 64.9688C37.4062 64.5989 37.2558 64.2361 36.9941 63.9745Z" fill="black"/></symbol><symbol id="icon-chat" viewBox="0 0 72 72" fill="none" xmlns="http://www.w3.org/2000/svg"> <path d="M52 2.5C47.2 2.5 46 6.83333 46 9C47.5 9.5 51.5 10.5 55.5 10.5C59.5 10.5 60.1667 5.16667 60 2.5H52Z" fill="#F9D14C"/> <path d="M18 33.5C13.2 33.5 12 37.8333 12 40C13.5 40.5 17.5 41.5 21.5 41.5C25.5 41.5 26.1667 36.1667 26 33.5H18Z" fill="#F9D14C"/> <path d="M25.5544 51.5832C25.4527 51.5543 25.3486 51.538 25.2439 51.5323C26.7843 49.9133 27.7329 47.7262 27.7329 45.3204V37.922C27.7329 37.8543 27.7265 37.7884 27.7173 37.7234C27.7266 37.5898 27.7329 37.4554 27.7329 37.3195V32.6387C27.7329 31.862 27.1034 31.2324 26.3267 31.2324H16.8945C12.9226 31.2324 9.69131 34.4638 9.69131 38.4357V45.3204C9.69131 47.7262 10.6398 49.9133 12.1804 51.5323C12.0757 51.538 11.9717 51.5543 11.8702 51.5832C5.22464 52.185 0 57.7862 0 64.5857V70.5938C0 71.3704 0.629578 72 1.40625 72H36.0179C36.7945 72 37.4241 71.3704 37.4241 70.5938V64.5857C37.4241 57.7864 32.1997 52.1851 25.5544 51.5832ZM12.5038 40.2189V38.4355C12.5038 36.0145 14.4735 34.0448 16.8945 34.0448H24.9204V37.3194C24.9204 38.9679 23.5793 40.3091 21.9307 40.3091H12.5038V40.2189ZM12.5038 43.1216H21.9307C23.0237 43.1216 24.0467 42.8175 24.9204 42.2899V45.3202C24.9204 48.7435 22.1354 51.5285 18.7121 51.5285C15.2889 51.5285 12.5038 48.7435 12.5038 45.3202V43.1216ZM21.7728 54.3412L18.7121 57.402L15.6514 54.3412H21.7728ZM34.6117 69.1875H2.8125V66.375H8.64844C9.42511 66.375 10.0547 65.7454 10.0547 64.9688C10.0547 64.1921 9.42511 63.5625 8.64844 63.5625H2.86383C3.33619 58.8212 7.0553 55.0242 11.7591 54.4263L17.7178 60.385C17.9814 60.6486 18.3392 60.7969 18.7121 60.7969C19.0851 60.7969 19.4428 60.6486 19.7065 60.385L25.6652 54.4263C30.7029 55.0665 34.6117 59.3768 34.6117 64.5857V69.1875Z" fill="black"/> <path d="M60.1306 20.351C60.0289 20.322 59.9247 20.3057 59.8198 20.3001C61.3602 18.681 62.3087 16.4939 62.3087 14.0881V6.68953C62.3087 6.62189 62.3023 6.55594 62.2931 6.49097C62.3024 6.35737 62.3087 6.22294 62.3087 6.08709V1.40625C62.3087 0.629578 61.6792 0 60.9025 0H51.4704C47.4984 0 44.2671 3.23142 44.2671 7.20323V14.0879C44.2671 16.4938 45.2156 18.6809 46.756 20.2999C46.6513 20.3055 46.5469 20.3219 46.4453 20.3508C39.8 20.9528 34.5758 26.5541 34.5758 33.3533V39.3612C34.5758 40.1379 35.2054 40.7675 35.9821 40.7675H47.2967C48.0734 40.7675 48.703 40.1379 48.703 39.3612C48.703 38.5845 48.0734 37.955 47.2967 37.955H37.3883V33.3534C37.3883 28.1445 41.297 23.8342 46.3347 23.194L52.2934 29.1527C52.5681 29.4273 52.9279 29.5646 53.2878 29.5646C53.6476 29.5646 54.0077 29.4273 54.2822 29.1527L60.2409 23.194C65.2789 23.8344 69.1876 28.1445 69.1876 33.3534V37.9551H58.8281C58.0515 37.9551 57.4219 38.5847 57.4219 39.3614C57.4219 40.138 58.0515 40.7676 58.8281 40.7676H70.5938C71.3705 40.7676 72 40.138 72 39.3614V33.3534C72 26.5542 66.7757 20.953 60.1306 20.351ZM53.2881 26.1696L50.2274 23.1089H56.3488L53.2881 26.1696ZM59.4964 14.0879C59.4964 17.5112 56.7113 20.2963 53.2881 20.2963C49.8648 20.2963 47.0798 17.5113 47.0798 14.0881V11.8893H56.5067C57.5996 11.8893 58.6227 11.5851 59.4964 11.0576V14.0879ZM59.4964 6.08709C59.4964 7.73564 58.1552 9.07678 56.5067 9.07678H47.0798V8.98664V7.20323C47.0798 4.78223 49.0495 2.8125 51.4705 2.8125H59.4964V6.08709Z" fill="black"/> <path d="M54.2827 38.3666C54.0211 38.1051 53.6583 37.9546 53.2885 37.9546C52.9172 37.9546 52.5558 38.1051 52.2942 38.3666C52.0313 38.6282 51.8822 38.991 51.8822 39.3608C51.8822 39.7321 52.0313 40.0935 52.2942 40.3551C52.5558 40.618 52.9172 40.7671 53.2885 40.7671C53.6583 40.7671 54.0211 40.618 54.2827 40.3551C54.5442 40.0935 54.6947 39.7321 54.6947 39.3608C54.6947 38.991 54.5442 38.6282 54.2827 38.3666Z" fill="black"/> <path d="M37.6038 19.6775L31.7227 13.7964V7.03125C31.7227 3.15422 28.5685 0 24.6915 0H7.03125C3.15422 0 0 3.15422 0 7.03125V19.4062C0 23.2833 3.15422 26.4375 7.03125 26.4375H24.6914C27.5986 26.4375 30.1338 24.6928 31.1975 22.0781H36.6093C37.178 22.0781 37.6909 21.7354 37.9086 21.21C38.1262 20.6847 38.0059 20.0797 37.6038 19.6775Z" fill="#F9D14C"/> <path d="M64.9688 45.5625H47.3087C44.4014 45.5625 41.8662 47.3072 40.8025 49.9219H35.3907C34.822 49.9219 34.3092 50.2646 34.0915 50.79C33.8738 51.3153 33.9942 51.9203 34.3962 52.3225L40.2773 58.2036V64.9687C40.2773 68.8458 43.4315 72 47.3085 72H64.9688C68.8458 72 72 68.8458 72 64.9687V52.5937C72 48.7167 68.8458 45.5625 64.9688 45.5625ZM69.1875 64.9687C69.1875 67.295 67.295 69.1875 64.9688 69.1875H47.3087C44.9825 69.1875 43.0899 67.295 43.0899 64.9687V57.6211C43.0899 57.2482 42.9417 56.8904 42.678 56.6267L38.7857 52.7344H41.8284C42.4835 52.7344 43.052 52.282 43.1989 51.6434C43.6416 49.7191 45.3315 48.375 47.3087 48.375H64.9688C67.295 48.375 69.1875 50.2675 69.1875 52.5937V64.9687Z" fill="black"/> <path d="M62.4594 55.0395C61.9104 54.4904 61.02 54.4904 60.4708 55.0395L56.7326 58.7778L54.9943 57.0395C54.4452 56.4904 53.5548 56.4904 53.0055 57.0395C52.4563 57.5887 52.4563 58.4791 53.0055 59.0284L55.7381 61.761C56.0127 62.0356 56.3726 62.1729 56.7325 62.1729C57.0923 62.1729 57.4523 62.0356 57.7268 61.761L62.4594 57.0284C63.0086 56.4793 63.0086 55.5888 62.4594 55.0395Z" fill="black"/> <path d="M20.2543 9.31888C20.0881 6.90759 18.1444 4.96387 15.7331 4.79765C14.3658 4.70357 13.0625 5.16482 12.064 6.09688C11.0795 7.01587 10.5148 8.31524 10.5148 9.66159C10.5149 10.4384 11.1445 11.068 11.9212 11.068C12.6978 11.068 13.3274 10.4384 13.3274 9.66173C13.3274 9.08362 13.5603 8.54784 13.9833 8.15296C14.4056 7.75865 14.9589 7.5629 15.5399 7.60368C16.5578 7.67385 17.3784 8.4944 17.4486 9.51238C17.5196 10.5416 16.8449 11.4512 15.8443 11.6751C14.7491 11.92 13.9843 12.8722 13.9843 13.9904V14.7407C13.9843 15.5174 14.6138 16.1469 15.3905 16.1469C16.1672 16.1469 16.7968 15.5174 16.7968 14.7407V14.3315C18.9756 13.6815 20.4135 11.6274 20.2543 9.31888Z" fill="black"/> <path d="M16.3853 19.1279C16.1238 18.8663 15.761 18.7158 15.3911 18.7158C15.0199 18.7158 14.6585 18.8663 14.3969 19.1279C14.1339 19.3894 13.9849 19.7522 13.9849 20.1221C13.9849 20.4919 14.1339 20.8547 14.3969 21.1163C14.6585 21.3779 15.0199 21.5283 15.3911 21.5283C15.761 21.5283 16.1238 21.3779 16.3853 21.1163C16.6469 20.8547 16.7974 20.4919 16.7974 20.1221C16.7974 19.7522 16.6469 19.3894 16.3853 19.1279Z" fill="black"/> <path d="M15.2677 63.9745C15.0061 63.713 14.6433 63.5625 14.2734 63.5625C13.9036 63.5625 13.5408 63.713 13.2792 63.9745C13.0177 64.2361 12.8672 64.5989 12.8672 64.9687C12.8672 65.3386 13.0177 65.7014 13.2792 65.963C13.5408 66.2245 13.9036 66.375 14.2734 66.375C14.6433 66.375 15.0061 66.2245 15.2677 65.963C15.5292 65.7014 15.6797 65.3386 15.6797 64.9687C15.6797 64.5989 15.5292 64.2361 15.2677 63.9745Z" fill="black"/> </symbol><symbol viewBox="0 0 15 12" id="icon-arrow-faq" xmlns="http://www.w3.org/2000/svg"><path d="M14.53 6.53a.75.75 0 000-1.06L9.757.697a.75.75 0 10-1.06 1.06L12.939 6l-4.242 4.243a.75.75 0 001.06 1.06L14.53 6.53zM0 6.75h14v-1.5H0v1.5z"/></symbol><symbol viewBox="0 0 45 16" id="icon-arrow-right" xmlns="http://www.w3.org/2000/svg"><path d="M44.707 8.707a1 1 0 000-1.414L38.343.929a1 1 0 10-1.414 1.414L42.586 8l-5.657 5.657a1 1 0 001.414 1.414l6.364-6.364zM0 9h44V7H0v2z"/></symbol><symbol id="icon-heart" viewBox="0 0 72 61" fill="none" xmlns="http://www.w3.org/2000/svg"><path d="M42.9683 52.193H37.5122C36.7357 52.193 36.1061 52.8224 36.1061 53.5991C36.1061 54.3758 36.7357 55.0052 37.5122 55.0052H42.9683C43.8104 55.0052 44.4955 55.6902 44.4955 56.5323C44.4955 57.3743 43.8105 58.0593 42.9683 58.0593H28.2809C26.0731 58.0593 23.9969 57.0859 22.585 55.3886L19.0727 51.1667C17.188 48.9013 14.4451 47.5745 11.5103 47.4905V39.1842H16.6875C19.2407 39.1842 21.6582 40.1607 23.4949 41.9337L31.0757 49.2511C31.6116 49.7685 31.6366 50.6347 31.1314 51.182C30.6164 51.7398 29.7423 51.7762 29.1827 51.2633L23.2311 45.8077C22.6589 45.283 21.7693 45.3215 21.2446 45.894C20.7198 46.4665 20.7585 47.3559 21.3309 47.8806L27.2826 53.3363C28.0853 54.072 29.101 54.4354 30.1142 54.4354C31.2454 54.4354 32.3734 53.9824 33.1978 53.0893C34.7315 51.4279 34.6557 48.7985 33.0288 47.228L25.448 39.9106C23.0843 37.6288 19.9731 36.3722 16.6875 36.3722H11.2372C10.7082 35.12 9.46742 34.239 8.02489 34.239H1.40611C0.629577 34.239 0 34.8685 0 35.6451V45.9272C0 46.7037 0.629577 47.3333 1.40611 47.3333C2.18264 47.3333 2.81221 46.7039 2.81221 45.9272V37.0511H8.02503C8.39628 37.0511 8.6982 37.3531 8.6982 37.7243V48.9943C8.6982 49.3655 8.39628 49.6675 8.02503 49.6675H6.56464C5.78812 49.6675 5.15854 50.297 5.15854 51.0736C5.15854 51.8502 5.78812 52.4797 6.56464 52.4797H8.02489C9.48683 52.4797 10.7405 51.5747 11.2573 50.2957C13.4494 50.3082 15.508 51.2789 16.9108 52.9653L20.4232 57.1871C22.3711 59.5287 25.2351 60.8715 28.2809 60.8715H42.9683C45.3609 60.8715 47.3076 58.925 47.3076 56.5323C47.3076 54.1395 45.3609 52.193 42.9683 52.193Z" fill="black"/> <path d="M70.5937 12.9889C69.8172 12.9889 69.1876 13.6184 69.1876 14.3951V23.8204H63.9748C63.6036 23.8204 63.3016 23.5184 63.3016 23.1473V11.8772C63.3016 11.5061 63.6036 11.204 63.9748 11.204H65.332C66.1085 11.204 66.7381 10.5746 66.7381 9.79789C66.7381 9.02136 66.1085 8.39178 65.332 8.39178H63.9748C62.5129 8.39178 61.2592 9.29684 60.7424 10.5758C58.5503 10.5633 56.4917 9.59258 55.0889 7.90621L51.5765 3.68451C49.6287 1.34297 46.7646 0 43.7187 0H29.0315C26.6389 0 24.6923 1.94653 24.6923 4.33912C24.6923 6.73171 26.6389 8.67824 29.0315 8.67824H35.0373C35.8139 8.67824 36.4434 8.0488 36.4434 7.27213C36.4434 6.49546 35.8139 5.86602 35.0373 5.86602H29.0315C28.1895 5.86602 27.5043 5.18104 27.5043 4.33898C27.5043 3.49706 28.1893 2.81193 29.0315 2.81193H43.7188C45.9267 2.81193 48.0029 3.78534 49.4148 5.48268L52.9272 9.70437C54.8117 11.9698 57.5547 13.2966 60.4896 13.3807V21.687H55.3123C52.7591 21.687 50.3417 20.7105 48.505 18.9375L40.9242 11.6201C40.3882 11.1027 40.3632 10.2366 40.8685 9.68919C41.3834 9.13133 42.2576 9.09505 42.8171 9.60791L48.7689 15.0636C49.3414 15.5883 50.2306 15.5497 50.7555 14.9772C51.2802 14.4048 51.2415 13.5153 50.669 12.9906L44.7172 7.5351C43.0185 5.97796 40.3652 6.08891 38.802 7.78203C37.2683 9.44366 37.3441 12.0731 38.971 13.6434L46.5518 20.9608C48.9156 23.2426 52.0268 24.4992 55.3123 24.4992H60.7627C61.2917 25.7513 62.5324 26.6324 63.9749 26.6324H70.5939C71.3704 26.6324 72 26.0029 72 25.2263V14.3948C71.9998 13.6184 71.3703 12.9889 70.5937 12.9889Z" fill="black"/> <path d="M45.399 47.8229C45.0793 47.1152 44.2482 46.7995 43.5411 47.1192C42.829 47.4293 42.5033 48.2578 42.8134 48.9697C43.0437 49.4988 43.5607 49.8147 44.1032 49.8147C44.2906 49.8147 44.481 49.777 44.6639 49.6974C44.6698 49.6949 44.6883 49.6866 44.6941 49.684C45.4019 49.3644 45.7187 48.5306 45.399 47.8229Z" fill="black"/> <path d="M48.8942 45.4558C48.4345 44.8314 47.551 44.7015 46.9259 45.1591C46.2994 45.6178 46.1633 46.4977 46.622 47.1241C46.8975 47.5003 47.3244 47.6997 47.7576 47.6997C48.0458 47.6997 48.3368 47.6114 48.5871 47.4282C48.5894 47.4266 48.6026 47.4168 48.6047 47.4152C49.2275 46.954 49.3538 46.0799 48.8942 45.4558Z" fill="black"/> <path d="M41.468 49.4015C41.3078 48.6442 40.5644 48.1594 39.8064 48.316C39.0493 48.4663 38.5543 49.1997 38.6994 49.9591C38.8282 50.6327 39.4176 51.1014 40.0789 51.1014C40.1664 51.1014 40.2554 51.0931 40.3444 51.0761C40.3536 51.0742 40.3766 51.0696 40.3859 51.0676C41.1453 50.9066 41.6287 50.161 41.468 49.4015Z" fill="black"/> <path d="M51.8316 42.3974C51.255 41.8773 50.3661 41.923 49.8458 42.4997C49.8389 42.5075 49.8228 42.5257 49.816 42.5335C49.3086 43.1214 49.3742 44.0093 49.9621 44.5166C50.2278 44.7458 50.5546 44.858 50.8798 44.858C51.2703 44.858 51.6586 44.6963 51.9362 44.3807C52.454 43.804 52.4074 42.9167 51.8316 42.3974ZM51.0463 43.583L50.89 43.4415L51.0593 43.5942L51.0463 43.583Z" fill="black"/> <path d="M55.4106 34.7771C54.6675 34.5517 53.8814 34.9757 53.656 35.7189C53.4276 36.4611 53.8442 37.2479 54.5864 37.4762C54.724 37.5187 54.8633 37.5388 55.0002 37.5388C55.6013 37.5388 56.1577 37.1504 56.3436 36.5459L56.3495 36.5266C56.5748 35.7834 56.1536 35.0024 55.4106 34.7771Z" fill="black"/> <path d="M57.2115 27.5202C57.2084 27.5024 57.205 27.4845 57.2012 27.4667C57.0425 26.7067 56.2977 26.2206 55.5381 26.3791C54.7811 26.5369 54.2944 27.2771 54.4468 28.0339C54.5758 28.7049 55.1637 29.1744 55.8258 29.1744C55.908 29.1744 55.9916 29.1672 56.0752 29.1522C56.8397 29.0154 57.3483 28.2847 57.2115 27.5202Z" fill="black"/> <path d="M55.9219 30.5709C55.1509 30.5029 54.466 31.0745 54.3978 31.8479C54.3966 31.8616 54.3946 31.8893 54.3938 31.9029C54.3482 32.6782 54.9395 33.3436 55.7148 33.3892C55.7429 33.3909 55.7708 33.3917 55.7986 33.3917C56.5307 33.3917 57.1459 32.8256 57.1998 32.0883C57.2639 31.3176 56.6933 30.639 55.9219 30.5709Z" fill="black"/> <path d="M54.0341 38.7784C53.3591 38.3957 52.5004 38.6328 52.1176 39.3085L52.0981 39.3437C51.7278 40.0263 51.9777 40.8859 52.6602 41.2562C52.8749 41.3726 53.106 41.4279 53.3336 41.4279C53.8299 41.4279 54.3093 41.1646 54.5631 40.6966L53.3408 40.0017L54.5641 40.6949C54.947 40.0192 54.7098 39.1613 54.0341 38.7784Z" fill="black"/> <path d="M28.532 11.9999C28.1848 11.3052 27.3398 11.0235 26.6457 11.371L26.6332 11.3772C25.9385 11.7245 25.6633 12.5659 26.0106 13.2604C26.2566 13.7525 26.755 14.0357 27.2716 14.0357C27.4845 14.0357 27.7005 13.9876 27.9032 13.8864C28.5978 13.5392 28.8792 12.6946 28.532 11.9999Z" fill="black"/> <path d="M32.5999 10.8275C32.4169 10.0731 31.6578 9.60929 30.902 9.79238C30.8955 9.79393 30.8756 9.79899 30.8691 9.80068C30.117 9.99446 29.6615 10.7618 29.8552 11.5138C30.0187 12.1483 30.5878 12.57 31.2135 12.57C31.3293 12.57 31.4472 12.5555 31.5648 12.5253C32.3193 12.3423 32.7828 11.5823 32.5999 10.8275Z" fill="black"/> <path d="M24.8141 14.0274C24.3278 13.4231 23.4424 13.3282 22.8375 13.8134L23.7092 14.9166L22.8332 13.8166C22.2257 14.3004 22.1255 15.1849 22.6091 15.7924C22.887 16.1411 23.2966 16.3227 23.7102 16.3227C24.017 16.3227 24.3262 16.2226 24.5851 16.0165L24.6037 16.0016C25.207 15.5144 25.3004 14.6317 24.8141 14.0274Z" fill="black"/> <path d="M17.317 24.0318C16.5677 23.8276 15.7948 24.269 15.5905 25.0183C15.587 25.0311 15.5803 25.0577 15.577 25.0706C15.3942 25.825 15.8577 26.5837 16.612 26.7669C16.7234 26.7939 16.8348 26.8069 16.9445 26.8069C17.5753 26.8069 18.1485 26.3788 18.3082 25.7408C18.501 24.9972 18.0605 24.2346 17.317 24.0318Z" fill="black"/> <path d="M16.4211 28.1631C15.6439 28.1199 14.981 28.7104 14.936 29.4855C14.9349 29.5037 14.9342 29.5217 14.9336 29.5397C14.9108 30.3155 15.5213 30.962 16.2972 30.9852C16.3116 30.9856 16.3256 30.9859 16.3398 30.9859C17.0936 30.9859 17.7164 30.3878 17.7443 29.6307C17.7794 28.863 17.1905 28.2078 16.4211 28.1631Z" fill="black"/> <path d="M19.0866 20.1893C18.3988 19.8285 17.549 20.0936 17.1883 20.7812L17.1653 20.8265C16.8226 21.523 17.1101 22.3642 17.8064 22.7072C18.0059 22.8055 18.2172 22.8519 18.4258 22.8519C18.9421 22.8519 19.4392 22.5662 19.6856 22.074C20.0358 21.3887 19.7697 20.5478 19.0866 20.1893Z" fill="black"/> <path d="M21.626 16.8062C21.0284 16.3102 20.1419 16.3924 19.646 16.9898C19.6392 16.9981 19.6237 17.0172 19.617 17.0255C19.1349 17.634 19.238 18.5169 19.8462 18.9992C20.1044 19.2041 20.4124 19.3034 20.7184 19.3034C21.1308 19.3034 21.5398 19.1228 21.8175 18.7766C22.3046 18.1794 22.2202 17.2996 21.626 16.8062Z" fill="black"/> <path d="M18.0102 33.5334C17.8734 32.769 17.1423 32.2603 16.3783 32.3973C15.6138 32.5343 15.1052 33.2648 15.242 34.0292L15.2446 34.043C15.3663 34.7227 15.9565 35.1947 16.6232 35.1947C16.7064 35.1947 16.7906 35.1874 16.8752 35.1722C17.6397 35.0354 18.1472 34.2978 18.0102 33.5334Z" fill="black"/> <path d="M40.8278 22.8596C38.9976 22.8596 37.3018 23.6144 36.0934 24.888C34.8849 23.6144 33.1892 22.8596 31.359 22.8596C27.7586 22.8596 24.8295 25.7887 24.8295 29.3891C24.8295 31.3318 25.6864 33.1602 27.1801 34.4056C27.1891 34.4132 27.1984 34.4207 27.2076 34.4281L35.2206 40.772C35.4762 40.9745 35.7848 41.0756 36.0933 41.0756C36.4032 41.0756 36.7132 40.9735 36.9694 40.7693L45.3218 34.1164C45.3627 34.0839 45.4017 34.049 45.4387 34.0121C46.676 32.7782 47.3573 31.1364 47.3573 29.3891C47.3573 25.7887 44.4283 22.8596 40.8278 22.8596Z" fill="#F9D14C"/> <path d="M1.40613 52.475C2.17998 52.475 2.80731 51.8476 2.80731 51.0738C2.80731 50.2999 2.17998 49.6726 1.40613 49.6726C0.632276 49.6726 0.00494385 50.2999 0.00494385 51.0738C0.00494385 51.8476 0.632276 52.475 1.40613 52.475Z" fill="black"/> <path d="M70.5936 11.1989C71.3675 11.1989 71.9948 10.5715 71.9948 9.79767C71.9948 9.02382 71.3675 8.39648 70.5936 8.39648C69.8198 8.39648 69.1924 9.02382 69.1924 9.79767C69.1924 10.5715 69.8198 11.1989 70.5936 11.1989Z" fill="black"/></symbol><symbol viewBox="0 0 74 52" id="icon-chek-th" xmlns="http://www.w3.org/2000/svg"><path d="M5 24l22.5 22.5L69 5"/></symbol><symbol viewBox="0 0 170 170" id="icon-dont-wait" xmlns="http://www.w3.org/2000/svg"><path d="M81.648 61h8.136l-1.368 34.488h-5.472L81.648 61zm4.104 50.832c-1.344 0-2.472-.432-3.384-1.296-.912-.912-1.368-2.016-1.368-3.312 0-1.296.456-2.376 1.368-3.24.912-.912 2.04-1.368 3.384-1.368 1.344 0 2.448.456 3.312 1.368.864.864 1.296 1.944 1.296 3.24 0 1.296-.456 2.4-1.368 3.312-.864.864-1.944 1.296-3.24 1.296z" fill="#000"/><path d="M90.733 25.943l.33 1.37.608-1.271 10.557-22.096.659 24.48.038 1.408.858-1.117L118.704 9.3l-4.446 24.08-.255 1.386 1.071-.914 18.632-15.89-9.355 22.63-.538 1.302 1.239-.672 21.528-11.67-13.856 20.192-.797 1.162 1.351-.4 23.485-6.938-17.751 16.869-1.022.97 1.405-.11 24.414-1.903-20.871 12.81-1.2.736 1.396.185 24.276 3.213-23.077 8.19-1.328.472 1.328.471 23.077 8.19-24.276 3.214-1.396.185 1.2.737 20.871 12.81-24.414-1.905-1.405-.109 1.022.97 17.751 16.869-23.485-6.938-1.351-.399.797 1.161 13.856 20.191-21.528-11.669-1.239-.672.538 1.302 9.355 22.631-18.632-15.891-1.071-.914.255 1.385 4.446 24.081-14.921-19.417-.858-1.117-.038 1.408-.659 24.48-10.557-22.096-.608-1.271-.33 1.37L85 167.864l-5.733-23.807-.33-1.37-.608 1.271-10.557 22.096-.659-24.48-.038-1.408-.858 1.117L51.296 160.7l4.446-24.081.256-1.385-1.072.914-18.633 15.891 9.356-22.631.538-1.302-1.238.672-21.53 11.669 13.857-20.191.797-1.161-1.351.399-23.485 6.938 17.752-16.869 1.02-.97-1.404.109-24.414 1.905 20.87-12.81 1.201-.737-1.396-.185L2.59 93.662l23.077-8.19L26.995 85l-1.328-.471-23.077-8.19 24.276-3.214 1.396-.185-1.2-.737-20.87-12.81 24.413 1.905 1.405.11-1.021-.971-17.752-16.87 23.485 6.94 1.35.399-.796-1.162L23.42 29.553l21.529 11.67 1.238.67-.538-1.301-9.355-22.63 18.632 15.89 1.072.914-.256-1.385L51.296 9.3l14.921 19.417.858 1.117.038-1.408.659-24.48 10.557 22.095.608 1.272.33-1.37L85 2.136l5.733 23.807z"/></symbol><symbol viewBox="0 0 13 8" id="icon-down" xmlns="http://www.w3.org/2000/svg"><path fill-rule="evenodd" clip-rule="evenodd" d="M.97 1.53L2.03.47 6.5 4.94 10.97.47l1.06 1.06L6.5 7.06.97 1.53z"/></symbol><symbol viewBox="0 0 169 98" id="icon-ellipse-arrow-left" xmlns="http://www.w3.org/2000/svg"><path d="M167.5.5c-40 76-119 88-166 92.5m6-6.5l-6 6.5L9 97"/></symbol><symbol viewBox="0 0 143 55" id="icon-ellipse-arrow-right" xmlns="http://www.w3.org/2000/svg"><path d="M1.5.5c46 52.5 126 49 139.5 48m-5.5-4l5.5 4-5.5 5"/></symbol><symbol viewBox="0 0 46 12" id="icon-more" xmlns="http://www.w3.org/2000/svg"><path d="M45.53 6.53a.75.75 0 000-1.06L40.757.697a.75.75 0 00-1.06 1.06L43.939 6l-4.242 4.243a.75.75 0 001.06 1.06L45.53 6.53zM0 6.75h45v-1.5H0v1.5z"/></symbol><symbol viewBox="0 0 37 29" id="icon-quote" xmlns="http://www.w3.org/2000/svg"><path d="M28.828 28.758c-2.203 0-4.078-.82-5.625-2.461-1.547-1.64-2.32-3.703-2.32-6.188 0-3.656.61-6.726 1.828-9.21 1.219-2.485 2.531-4.547 3.937-6.188A29.148 29.148 0 0132.414 0l2.18 2.813c-.938.656-1.852 1.523-2.742 2.601-.75.844-1.477 1.899-2.18 3.164-.656 1.266-1.172 2.719-1.547 4.36 2.484 0 4.547.773 6.188 2.32 1.64 1.5 2.46 3.351 2.46 5.555 0 2.203-.773 4.078-2.32 5.625-1.547 1.546-3.422 2.32-5.625 2.32zm-20.883 0c-2.203 0-4.078-.82-5.625-2.461C.773 24.657 0 22.594 0 20.109c0-3.656.61-6.726 1.828-9.21C3.047 8.413 4.36 6.351 5.766 4.71A29.149 29.149 0 0111.53 0l2.18 2.813c-.938.656-1.852 1.523-2.742 2.601-.75.844-1.477 1.899-2.18 3.164-.656 1.266-1.172 2.719-1.547 4.36 2.485 0 4.547.773 6.188 2.32 1.64 1.5 2.46 3.351 2.46 5.555 0 2.203-.773 4.078-2.32 5.625-1.547 1.546-3.422 2.32-5.625 2.32z"/></symbol><symbol viewBox="0 0 298 298" id="icon-ray" xmlns="http://www.w3.org/2000/svg"><path fill-rule="evenodd" clip-rule="evenodd" d="M146.887 298V0h4.227v298h-4.227z"/><path fill-rule="evenodd" clip-rule="evenodd" d="M0 146.887h298v4.227H0v-4.227z"/><path fill-rule="evenodd" clip-rule="evenodd" d="M252.865 255.853L42.147 45.135l2.989-2.989 210.718 210.718-2.989 2.989z"/><path fill-rule="evenodd" clip-rule="evenodd" d="M42.146 252.864L252.864 42.147l2.989 2.989L45.135 255.853l-2.989-2.989z"/><path fill-rule="evenodd" clip-rule="evenodd" d="M72.67 276.981l149-258.075 3.66 2.113-149 258.076-3.66-2.114z"/><path fill-rule="evenodd" clip-rule="evenodd" d="M21.019 72.67l258.075 149-2.113 3.66-258.076-149 2.114-3.66z"/><path fill-rule="evenodd" clip-rule="evenodd" d="M185.522 293.47L108.394 5.624l4.083-1.094 77.128 287.846-4.083 1.094z"/><path fill-rule="evenodd" clip-rule="evenodd" d="M4.53 185.523l287.846-77.128 1.094 4.083L5.624 189.606l-1.094-4.083z"/><path fill-rule="evenodd" clip-rule="evenodd" d="M108.395 292.376L185.523 4.53l4.083 1.094-77.128 287.846-4.083-1.094z"/><path fill-rule="evenodd" clip-rule="evenodd" d="M5.624 108.394l287.846 77.128-1.094 4.083L4.53 112.477l1.094-4.083z"/><path fill-rule="evenodd" clip-rule="evenodd" d="M221.67 279.094l-149-258.075 3.66-2.114 149 258.076-3.66 2.113z"/><path fill-rule="evenodd" clip-rule="evenodd" d="M18.905 221.67l258.076-149 2.113 3.66-258.075 149-2.114-3.66z"/></symbol><symbol viewBox="0 0 100 100" id="icon-ray-sm" xmlns="http://www.w3.org/2000/svg"><path d="M50 0l4.943 31.552L75 6.7 63.505 36.496 93.3 25 68.448 45.057 100 50l-31.552 4.943L93.3 75 63.504 63.505 75 93.3 54.943 68.448 50 100l-4.943-31.552L25 93.3l11.495-29.797L6.7 75l24.853-20.057L0 50l31.552-4.943L6.7 25l29.797 11.495L25 6.7l20.057 24.853L50 0z"/></symbol><symbol viewBox="0 0 42 42" id="icon-ray-xs" xmlns="http://www.w3.org/2000/svg"><path d="M21 0l2.076 13.252L31.5 2.813l-4.828 12.515L39.187 10.5l-10.439 8.424L42 21l-13.252 2.076L39.187 31.5l-12.515-4.828L31.5 39.187l-8.424-10.439L21 42l-2.076-13.252L10.5 39.187l4.828-12.515L2.813 31.5l10.439-8.424L0 21l13.252-2.076L2.813 10.5l12.515 4.828L10.5 2.813l8.424 10.439L21 0z"/></symbol><symbol viewBox="0 0 30 12" id="icon-slide-left" xmlns="http://www.w3.org/2000/svg"><path d="M.47 6.53a.75.75 0 010-1.06L5.243.697a.75.75 0 111.06 1.06L2.061 6l4.242 4.243a.75.75 0 01-1.06 1.06L.47 6.53zM30 6.75H1v-1.5h29v1.5z"/></symbol><symbol viewBox="0 0 30 12" id="icon-slide-right" xmlns="http://www.w3.org/2000/svg"><path d="M29.53 6.53a.75.75 0 000-1.06L24.757.697a.75.75 0 00-1.06 1.06L27.939 6l-4.242 4.243a.75.75 0 001.06 1.06L29.53 6.53zM0 6.75h29v-1.5H0v1.5z"/></symbol><symbol viewBox="0 0 22 20" id="icon-star" xmlns="http://www.w3.org/2000/svg"><path d="M10.103.817a1 1 0 011.794 0l2.397 4.857a1 1 0 00.753.547l5.36.78a1 1 0 01.555 1.705l-3.88 3.781a1 1 0 00-.287.885l.916 5.34a1 1 0 01-1.451 1.053l-4.795-2.52a1 1 0 00-.93 0l-4.795 2.52a1 1 0 01-1.45-1.054l.915-5.339a1 1 0 00-.288-.885l-3.879-3.78A1 1 0 011.592 7l5.361-.779a1 1 0 00.753-.547L10.103.817z"/></symbol><symbol viewBox="0 0 32 32" id="icon-tg" xmlns="http://www.w3.org/2000/svg"><path d="M16 32c8.839 0 16-7.161 16-16S24.839 0 16 0 0 7.161 0 16s7.161 16 16 16zM7.321 15.653l15.427-5.948c.716-.258 1.341.175 1.11 1.258v-.002l-2.626 12.375c-.195.877-.716 1.09-1.445.677l-4-2.948-1.93 1.859c-.213.213-.393.393-.806.393l.284-4.07 7.413-6.698c.323-.284-.072-.444-.497-.161l-9.162 5.768-3.949-1.232c-.857-.272-.876-.857.181-1.27z"/></symbol><symbol viewBox="0 0 32 32" id="icon-vk" xmlns="http://www.w3.org/2000/svg"><path d="M16 0C7.164 0 0 7.163 0 16s7.164 16 16 16 16-7.163 16-16S24.836 0 16 0zm8.116 17.73c.746.729 1.535 1.414 2.204 2.218.297.356.576.723.79 1.137.303.59.029 1.236-.5 1.27h-3.277c-.847.07-1.52-.271-2.088-.85-.454-.461-.874-.954-1.311-1.43a3.067 3.067 0 00-.59-.526c-.447-.29-.835-.202-1.091.265-.261.475-.32 1.002-.346 1.53-.035.773-.268.975-1.044 1.011-1.657.078-3.23-.173-4.69-1.009-1.29-.737-2.288-1.777-3.157-2.954-1.693-2.296-2.99-4.815-4.155-7.407-.262-.584-.07-.896.573-.908 1.07-.02 2.14-.018 3.21-.001.435.007.723.256.89.667.579 1.422 1.287 2.776 2.175 4.03.237.335.479.668.823.904.38.26.669.175.848-.25.115-.269.164-.557.189-.845.085-.99.095-1.978-.052-2.963-.092-.617-.438-1.015-1.053-1.131-.313-.06-.267-.175-.115-.354.264-.31.512-.5 1.006-.5h3.704c.584.114.715.375.794.963l.003 4.116c-.007.228.114.902.523 1.051.327.108.543-.154.74-.362.887-.942 1.52-2.055 2.087-3.206.25-.508.466-1.033.675-1.56.156-.389.398-.58.837-.574l3.567.005c.105 0 .212 0 .316.018.6.103.765.362.58.948-.293.921-.862 1.689-1.418 2.458-.596.824-1.23 1.619-1.82 2.446-.543.756-.5 1.137.173 1.793z"/></symbol><symbol viewBox="0 0 32 32" id="icon-yt" xmlns="http://www.w3.org/2000/svg"><path d="M16 0C7.165 0 0 7.165 0 16s7.165 16 16 16 16-7.165 16-16S24.835 0 16 0zm9.998 16.016s0 3.245-.412 4.81a2.505 2.505 0 01-1.762 1.762C22.258 23 16 23 16 23s-6.242 0-7.823-.428a2.506 2.506 0 01-1.763-1.763C6.002 19.261 6.002 16 6.002 16s0-3.245.412-4.81a2.556 2.556 0 011.763-1.778C9.74 9 16 9 16 9s6.259 0 7.823.428c.857.23 1.532.906 1.763 1.763.428 1.564.412 4.825.412 4.825z"/><path d="M14.007 18.998L19.212 16l-5.205-2.998v5.996z"/></symbol><symbol viewBox="0 0 237 447" id="question" xmlns="http://www.w3.org/2000/svg"><path d="M179.306 220.507l.008-.006.008-.007a213.74 213.74 0 0026.727-26.726c8.163-9.751 14.955-20.962 20.382-33.625 5.702-13.004 8.522-28.785 8.522-47.291 0-15.864-2.946-30.514-8.857-43.931-5.675-13.39-13.624-25.086-23.844-35.08-10.224-9.996-22.37-17.825-36.42-23.492-13.864-5.907-29.18-8.849-45.926-8.849-16.765 0-32.422 3.173-46.955 9.53-14.29 6.125-26.774 14.75-37.44 25.87-10.67 11.124-19.058 24.393-25.17 39.789l-.005.01C4.439 91.897 1.5 108.544 1.5 126.626v13.93h27.188v-13.93c0-14.391 2.323-27.527 6.95-39.426C40.5 75.043 47.01 64.569 55.157 55.76c8.369-8.807 18.049-15.515 29.049-20.135l.007-.003.006-.002c11.23-4.844 23.12-7.268 35.687-7.268 12.587 0 24.262 2.207 35.043 6.607l.017.007.017.006c11.013 4.185 20.228 10.117 27.675 17.784l.008.008.008.008c7.698 7.698 13.75 16.718 18.157 27.073l.005.013.005.012c4.615 10.328 6.925 21.316 6.925 32.982 0 15.958-2.772 29.258-8.235 39.966l-.006.011-.005.011c-5.315 10.851-11.956 20.701-19.924 29.555-8.013 8.904-16.809 17.365-26.387 25.385-9.714 8.132-18.633 17.391-26.757 27.772l-.007.008-.006.008c-7.931 10.424-14.712 22.638-20.354 36.629l-.004.012c-5.463 13.885-8.167 30.768-8.167 50.603v8.219h26.852v-8.219c0-17.773 2.667-32.554 7.93-44.4 5.546-12.199 12.302-22.937 20.263-32.225a205.411 205.411 0 0126.347-25.68zM97.681 437.756l.014.014.014.013c4.699 4.464 9.869 6.795 15.479 6.795 5.404 0 10.354-2.347 14.82-6.809 4.704-4.474 7.172-9.546 7.172-15.183 0-5.61-2.333-10.675-6.809-15.157-4.475-4.704-9.546-7.171-15.183-7.171-5.637 0-10.815 2.466-15.507 7.158-4.485 4.485-6.822 9.554-6.822 15.17s2.337 10.685 6.823 15.17z"/></symbol><symbol viewBox="0 0 185 188" id="textcb" xmlns="http://www.w3.org/2000/svg"><path fill-rule="evenodd" clip-rule="evenodd" d="M13.836 62.565L14.184 61.635L4.8 54.374L4.259 55.806L11.046 61.041L2.555 60.358L2.241 61.198L9.089 66.268L0.536 65.749L0 67.186L11.851 67.87L12.196 66.948L5.344 61.886L13.836 62.565ZM17.661 51.913L14.274 49.853L17.032 45.317L15.958 44.664L13.2 49.2L10.121 47.328L13.112 42.409L12.038 41.756L8.298 47.906L17.985 53.797L21.822 47.486L20.748 46.833L17.661 51.913ZM25.327 40.813L17.614 34.321L16.686 35.421L25.36 42.721L29.76 37.49L28.8 36.686L25.327 40.813ZM30.963 22.761C31.3096 22.6355 31.6745 22.5679 32.043 22.561C32.4064 22.5563 32.7679 22.6152 33.111 22.735C33.4586 22.8569 33.7883 23.0251 34.091 23.235L35.255 22.229C34.7905 21.9283 34.2881 21.6906 33.761 21.522C33.2438 21.3562 32.7041 21.2719 32.161 21.272C31.038 21.267 29.9528 21.6773 29.114 22.424C28.5888 22.8768 28.1684 23.4385 27.882 24.07C27.5889 24.7085 27.4254 25.3988 27.401 26.101C27.3768 26.8322 27.4842 27.5618 27.718 28.255C28.224 29.7368 29.2851 30.9646 30.678 31.68C31.329 32.0083 32.0334 32.2179 32.758 32.299C33.4562 32.3765 34.1629 32.3147 34.837 32.117C35.5034 31.925 36.12 31.5902 36.644 31.136C37.093 30.7554 37.4703 30.2975 37.758 29.784C38.0258 29.3031 38.2053 28.7782 38.288 28.234C38.3687 27.6963 38.3643 27.1493 38.275 26.613C38.1847 26.0669 38.0223 25.5353 37.792 25.032L36.635 26.032C36.7924 26.3652 36.907 26.717 36.976 27.079C37.045 27.437 37.0497 27.8044 36.99 28.164C36.9261 28.5373 36.7986 28.8969 36.613 29.227C36.4081 29.5909 36.1399 29.9154 35.821 30.185C35.4421 30.5104 34.9946 30.7463 34.512 30.875C34.0066 31.0135 33.4785 31.0492 32.959 30.98C32.4033 30.9055 31.8658 30.7303 31.373 30.463C30.289 29.8628 29.4539 28.8965 29.017 27.737C28.8239 27.2107 28.7283 26.6536 28.735 26.093C28.742 25.5691 28.8539 25.052 29.064 24.572C29.2606 24.1115 29.5587 23.7013 29.936 23.372C30.2367 23.1044 30.5851 22.8957 30.963 22.757V22.761ZM41.752 17.846C41.6573 17.2934 41.664 16.7282 41.772 16.178C41.874 15.6637 42.078 15.1751 42.372 14.741C42.6476 14.3242 43.0149 13.976 43.4458 13.7229C43.8767 13.4699 44.3597 13.3187 44.858 13.281C45.3792 13.2363 45.9041 13.2975 46.401 13.461C46.9332 13.6387 47.4296 13.9095 47.867 14.261C48.8275 15.0414 49.4744 16.1421 49.689 17.361C49.7829 17.9149 49.7771 18.4811 49.672 19.033C49.5726 19.5466 49.3702 20.0347 49.077 20.468C48.8014 20.8848 48.4341 21.233 48.0032 21.4861C47.5723 21.7391 47.0893 21.8903 46.591 21.928C46.069 21.9726 45.5433 21.9121 45.045 21.75C44.5117 21.5748 44.0149 21.3037 43.579 20.95C42.6204 20.1641 41.9728 19.0627 41.752 17.843V17.846ZM48.778 13.186C48.1965 12.7421 47.5401 12.4061 46.84 12.194C46.1674 11.9905 45.4611 11.9225 44.762 11.994C44.0721 12.064 43.4055 12.2823 42.8079 12.6341C42.2104 12.9859 41.696 13.4627 41.3 14.032C40.8964 14.6068 40.6109 15.256 40.46 15.942C40.3039 16.6568 40.2775 17.3938 40.382 18.118C40.6127 19.6656 41.4342 21.0635 42.674 22.018C43.255 22.4587 43.9099 22.7923 44.608 23.003C45.2806 23.2068 45.9869 23.2748 46.686 23.203C47.3759 23.1337 48.0426 22.9161 48.6405 22.565C49.2385 22.2139 49.7534 21.7377 50.15 21.169C50.5536 20.5942 50.8391 19.945 50.99 19.259C51.1457 18.5452 51.1728 17.8093 51.07 17.086C50.8392 15.5385 50.0177 14.1406 48.778 13.186ZM62.688 13.536L55.731 6.32L54.626 6.701L58.318 17.421L59.681 16.952L57.191 9.722L63 15.81L63.848 15.518L64.682 7.143L67.172 14.373L68.535 13.904L64.839 3.186L63.734 3.567L62.688 13.536ZM76.146 11.096L75.573 7.174L80.826 6.407L80.644 5.163L75.391 5.93L74.871 2.364L80.571 1.533L80.387 0.286L73.264 1.326L74.9 12.548L82.207 11.486L82.025 10.242L76.146 11.096ZM103.076 5.489C103.274 5.29878 103.444 5.08205 103.582 4.845C103.757 4.53495 103.862 4.19012 103.889 3.835C103.937 3.42206 103.897 3.00372 103.773 2.607C103.653 2.22689 103.459 1.87416 103.203 1.569C102.939 1.25848 102.616 1.00325 102.253 0.818C101.859 0.616565 101.43 0.491374 100.989 0.449L96.789 0L95.589 11.274L99.88 11.732C100.828 11.8429 101.782 11.5895 102.55 11.023C102.897 10.7659 103.19 10.4427 103.412 10.072C103.627 9.70983 103.759 9.30497 103.8 8.886C103.861 8.43849 103.818 7.98283 103.673 7.555C103.557 7.22391 103.388 6.91364 103.173 6.636C102.95 6.3642 102.686 6.12815 102.391 5.936C102.64 5.82125 102.87 5.67028 103.075 5.488L103.076 5.489ZM98.085 1.403L100.856 1.703C101.111 1.72865 101.358 1.80443 101.583 1.926C101.796 2.03864 101.985 2.19067 102.141 2.374C102.29 2.55249 102.403 2.75832 102.474 2.98C102.548 3.2107 102.571 3.45447 102.543 3.695C102.521 3.91731 102.448 4.13165 102.331 4.322C102.213 4.51513 102.06 4.68466 101.88 4.822C101.689 4.96566 101.472 5.07155 101.241 5.134C100.995 5.20246 100.737 5.22283 100.483 5.194L97.713 4.894L98.085 1.403ZM97.149 10.177L97.579 6.148L100.436 6.448C100.733 6.47602 101.021 6.56233 101.284 6.702C101.523 6.82875 101.738 6.9982 101.916 7.202C102.086 7.39865 102.214 7.62708 102.295 7.874C102.377 8.12158 102.404 8.38382 102.376 8.643C102.353 8.91559 102.274 9.18048 102.144 9.42128C102.014 9.66209 101.836 9.87369 101.621 10.043C101.395 10.2202 101.135 10.3496 100.858 10.4233C100.58 10.4971 100.29 10.5136 100.006 10.472L97.149 10.177ZM115.628 15.072L117.102 15.48L115.965 3.402L114.754 3.067L107.565 12.843L109.039 13.25L110.823 10.85L115.33 12.096L115.628 15.072ZM114.728 5.486L115.228 10.759L111.585 9.752L114.728 5.486ZM130.845 10.555C131.1 10.8212 131.308 11.1276 131.463 11.462C131.616 11.792 131.709 12.1465 131.739 12.509C131.771 12.8764 131.753 13.2464 131.686 13.609L133.078 14.262C133.163 13.7154 133.176 13.1599 133.116 12.61C133.057 12.0706 132.914 11.5436 132.693 11.048C132.241 10.02 131.424 9.19582 130.4 8.734C129.774 8.4394 129.092 8.28416 128.4 8.279C127.697 8.27107 127 8.40261 126.349 8.666C125.671 8.94119 125.049 9.33616 124.511 9.832C123.363 10.8976 122.673 12.3677 122.588 13.932C122.553 14.6603 122.649 15.389 122.869 16.084C123.083 16.7533 123.427 17.3735 123.882 17.909C124.329 18.4396 124.886 18.8665 125.514 19.16C126.044 19.4151 126.616 19.5732 127.202 19.627C127.75 19.6759 128.303 19.6261 128.834 19.48C129.358 19.3349 129.856 19.1081 130.309 18.808C130.771 18.5032 131.19 18.1383 131.556 17.723L130.172 17.073C129.932 17.3524 129.657 17.6003 129.355 17.811C129.056 18.0199 128.722 18.1739 128.369 18.266C128.002 18.3598 127.622 18.3899 127.245 18.355C126.828 18.3161 126.422 18.203 126.045 18.021C125.594 17.8071 125.196 17.4943 124.882 17.106C124.55 16.7003 124.303 16.2325 124.154 15.73C123.996 15.1921 123.937 14.6299 123.981 14.071C124.088 12.8364 124.631 11.6801 125.512 10.809C125.914 10.4184 126.384 10.1043 126.898 9.882C127.38 9.67504 127.898 9.56658 128.422 9.563C128.921 9.55643 129.416 9.66238 129.869 9.873C130.235 10.0374 130.568 10.2691 130.849 10.556L130.845 10.555ZM142.352 15.58L141.168 14.757L134.698 24.068L135.882 24.891L142.352 15.58ZM139.8 27.61L141.207 28.588L140.5 21.086L147.38 19.071L145.973 18.093L139.173 20.164L139.8 27.61ZM153.888 24.67L152.552 23.462L147.025 30.112L147.825 30.837L153.888 24.67ZM145.23 31.92C145.239 32.0396 145.273 32.156 145.329 32.2623C145.384 32.3685 145.461 32.4623 145.554 32.538C145.639 32.6232 145.741 32.6904 145.853 32.7356C145.965 32.7808 146.084 32.803 146.205 32.801C146.325 32.793 146.442 32.7604 146.549 32.7052C146.656 32.6499 146.751 32.5733 146.827 32.48C146.915 32.3958 146.983 32.2939 147.028 32.181C147.072 32.0681 147.092 31.9469 147.086 31.8257C147.08 31.7044 147.048 31.5859 146.992 31.4781C146.936 31.3704 146.858 31.2758 146.762 31.201C146.677 31.1157 146.575 31.0488 146.463 31.0046C146.351 30.9604 146.231 30.9397 146.111 30.944C145.991 30.9541 145.874 30.9883 145.767 31.0445C145.661 31.1006 145.566 31.1777 145.49 31.271C145.405 31.3556 145.337 31.4567 145.292 31.5681C145.247 31.6795 145.225 31.7989 145.228 31.919L145.23 31.92ZM171.33 56.787L169.151 52.344L168.102 52.859L170.28 57.302L171.33 56.787ZM176.58 93.259L176.518 91.995L184.155 91.62L184.072 89.92L176.113 85.533L174.936 85.591L175.184 90.63L172.761 90.749L172.831 92.18L175.254 92.061L175.316 93.325L176.58 93.259ZM176.28 87.149L182.022 90.29L176.448 90.564L176.28 87.149ZM173.04 112.134L182.828 109.976L183.081 108.835L172.013 106.378L171.7 107.786L179.164 109.443L170.94 111.209L170.745 112.085L177.445 117.174L169.98 115.517L169.668 116.924L180.736 119.381L180.99 118.24L173.04 112.134ZM168.09 124.856L171.733 126.418L169.64 131.297L170.795 131.797L172.888 126.918L176.2 128.338L173.931 133.629L175.086 134.129L177.923 127.514L167.5 123.036L164.59 129.821L165.745 130.321L168.09 124.856ZM167.116 145.195C166.816 145.412 166.482 145.578 166.128 145.685C165.781 145.789 165.419 145.834 165.057 145.818C164.688 145.801 164.323 145.733 163.972 145.618L163.14 146.901C163.67 147.06 164.218 147.148 164.771 147.163C165.312 147.178 165.852 147.108 166.371 146.955C166.891 146.809 167.381 146.572 167.818 146.255C168.836 145.481 169.511 144.34 169.701 143.076C169.807 142.381 169.773 141.671 169.601 140.989C169.42 140.28 169.113 139.609 168.696 139.008C167.796 137.726 166.434 136.843 164.896 136.545C164.179 136.412 163.444 136.407 162.726 136.531C162.033 136.652 161.37 136.91 160.778 137.29C160.193 137.659 159.695 138.151 159.319 138.732C158.993 139.224 158.758 139.771 158.628 140.347C158.511 140.882 158.487 141.433 158.556 141.976C158.624 142.516 158.778 143.041 159.014 143.531C159.253 144.03 159.557 144.495 159.919 144.914L160.751 143.631C160.5 143.359 160.29 143.053 160.125 142.722C159.963 142.396 159.858 142.045 159.815 141.683C159.78 141.306 159.804 140.925 159.886 140.555C159.977 140.149 160.143 139.762 160.374 139.416C160.647 138.998 161.011 138.646 161.438 138.388C161.885 138.114 162.383 137.935 162.902 137.86C163.455 137.778 164.018 137.795 164.565 137.912C165.776 138.181 166.849 138.877 167.588 139.873C167.919 140.326 168.167 140.834 168.321 141.373C168.46 141.876 168.497 142.402 168.429 142.92C168.369 143.415 168.198 143.891 167.929 144.311C167.715 144.651 167.44 144.949 167.118 145.189L167.116 145.195ZM154.186 153.001L152.726 154.572L149.3 151.386L148.319 152.441L156.619 160.16L159.497 157.06C159.81 156.727 160.052 156.332 160.207 155.902C160.359 155.49 160.432 155.052 160.421 154.613C160.409 154.179 160.314 153.752 160.139 153.355C159.965 152.95 159.708 152.587 159.385 152.288C158.989 151.887 158.487 151.608 157.938 151.483C157.508 151.394 157.065 151.38 156.63 151.443C156.163 151.525 155.715 151.689 155.305 151.927L153.766 146.573L152.666 147.757L154.186 153.001ZM153.653 155.434L155.553 153.393C155.733 153.196 155.953 153.041 156.198 152.937C156.437 152.836 156.692 152.78 156.951 152.773C157.214 152.766 157.476 152.811 157.721 152.906C158.243 153.112 158.669 153.507 158.912 154.013C159.024 154.251 159.088 154.508 159.101 154.771C159.113 155.03 159.076 155.289 158.992 155.534C158.907 155.786 158.768 156.017 158.585 156.211L156.685 158.252L153.653 155.434ZM137.789 162.801L143.889 170.827L145.029 169.96L138.929 161.934L143.085 158.775L149.185 166.8L150.332 165.928L143.471 156.902L137.096 161.747L135.682 159.886L134.604 160.705L136.78 163.567L137.789 162.801ZM125.212 168.535L123.855 169.235L132.907 177.311L134.023 176.732L132.639 164.686L131.281 165.386L131.605 168.357L127.455 170.511L125.212 168.535ZM132.392 174.949L128.436 171.427L131.79 169.686L132.392 174.949ZM114.474 184.477L112.062 173.398L110.654 173.705L112.798 183.555L107.345 184.743L105.2 174.892L103.8 175.197L106.211 186.275L114.474 184.477ZM96.633 183.506C96.4428 184.036 96.1634 184.529 95.807 184.965C95.4723 185.366 95.0605 185.695 94.596 185.934C94.1541 186.167 93.6649 186.296 93.1656 186.311C92.6663 186.326 92.1701 186.227 91.715 186.021C91.2348 185.815 90.8031 185.511 90.448 185.128C90.0678 184.716 89.7631 184.24 89.548 183.722C89.0796 182.574 89.0405 181.296 89.438 180.122C89.6245 179.595 89.9013 179.105 90.256 178.673C90.5885 178.268 91.0003 177.935 91.466 177.695C91.9079 177.462 92.3971 177.333 92.8963 177.318C93.3956 177.303 93.8917 177.402 94.347 177.607C94.8265 177.818 95.258 178.124 95.615 178.507C96.0026 178.914 96.3121 179.388 96.528 179.907C96.9844 181.057 97.0233 182.331 96.638 183.507L96.633 183.506ZM88.233 184.22C88.5303 184.888 88.9448 185.498 89.457 186.02C89.951 186.52 90.5394 186.916 91.188 187.186C91.8243 187.458 92.5124 187.587 93.204 187.565C93.8989 187.544 94.5811 187.374 95.204 187.065C95.8326 186.754 96.3934 186.322 96.854 185.793C97.3337 185.241 97.7103 184.607 97.966 183.921C98.5082 182.452 98.4587 180.83 97.828 179.397C97.53 178.732 97.1155 178.125 96.604 177.605C96.1145 177.102 95.528 176.704 94.88 176.435C94.2417 176.164 93.5524 176.035 92.8595 176.057C92.1666 176.078 91.4865 176.249 90.866 176.558C90.2338 176.867 89.6697 177.3 89.207 177.83C88.7283 178.38 88.3514 179.011 88.094 179.693C87.5517 181.163 87.6008 182.786 88.231 184.22H88.233ZM72.968 175.663L68.568 178.715C68.2315 178.924 67.9161 179.165 67.626 179.435C67.3535 179.685 67.1069 179.962 66.89 180.262C66.6497 180.586 66.4795 180.957 66.39 181.351C66.2925 181.76 66.2867 182.185 66.373 182.596C66.4582 183.001 66.6204 183.386 66.851 183.73C67.0958 184.091 67.409 184.401 67.773 184.642C68.1764 184.911 68.6264 185.102 69.1 185.205C69.5779 185.321 70.074 185.342 70.56 185.267C71.0093 185.197 71.4419 185.045 71.836 184.818C72.2226 184.593 72.5572 184.289 72.818 183.926C73.0873 183.555 73.2785 183.132 73.38 182.685L71.98 182.36C71.929 182.643 71.8193 182.913 71.6579 183.152C71.4965 183.39 71.2869 183.592 71.0427 183.745C70.7984 183.898 70.5249 183.998 70.2398 184.038C69.9547 184.079 69.6642 184.059 69.387 183.981C69.1163 183.933 68.8579 183.832 68.6267 183.683C68.3955 183.534 68.196 183.341 68.04 183.115C67.9016 182.905 67.8088 182.668 67.7675 182.42C67.7261 182.172 67.7372 181.918 67.8 181.675C67.8647 181.39 67.9853 181.12 68.155 180.882C68.3088 180.662 68.4829 180.458 68.675 180.271C68.887 180.07 69.1162 179.887 69.36 179.726L74.86 175.917L75.103 174.863L68.247 173.286L67.964 174.51L72.968 175.663ZM57.737 177.463C57.9591 177.486 58.1829 177.486 58.405 177.463C58.618 177.445 58.8276 177.397 59.028 177.323L57.495 180.203L53.313 178.541L52.813 179.791L58.163 181.917L61.225 176.164L60.057 175.7C59.8606 175.891 59.6299 176.043 59.377 176.148C59.1225 176.247 58.8557 176.309 58.584 176.335C58.2292 176.362 57.8732 176.301 57.547 176.159C57.2521 176.053 56.9829 175.887 56.757 175.67C56.5311 175.453 56.3535 175.19 56.236 174.9C56 174.267 56.0252 173.566 56.306 172.951C56.4331 172.618 56.6209 172.311 56.86 172.046C57.0705 171.813 57.3256 171.625 57.61 171.493C57.884 171.367 58.1813 171.298 58.483 171.293C58.801 171.288 59.1168 171.347 59.411 171.468C59.9394 171.648 60.3804 172.021 60.646 172.512C60.8703 172.935 60.9487 173.419 60.869 173.891L62.209 174.424C62.2949 174.022 62.3121 173.608 62.26 173.2C62.2085 172.794 62.0845 172.4 61.894 172.038C61.6921 171.659 61.423 171.321 61.1 171.038C60.7383 170.722 60.3236 170.473 59.875 170.301C59.3989 170.107 58.8892 170.008 58.375 170.011C57.891 170.012 57.4124 170.111 56.968 170.303C56.5236 170.495 56.1228 170.775 55.79 171.126C55.0798 171.883 54.6831 172.881 54.68 173.919C54.6813 174.399 54.7753 174.875 54.957 175.319C55.1375 175.751 55.4004 176.145 55.731 176.477C56.0689 176.82 56.475 177.087 56.923 177.263C57.1824 177.369 57.4559 177.438 57.735 177.465L57.737 177.463ZM46.481 172.552C46.1047 172.914 45.6677 173.208 45.19 173.419C44.803 173.59 44.3815 173.668 43.959 173.647C43.5738 173.622 43.2001 173.506 42.8687 173.308C42.5373 173.11 42.2577 172.836 42.053 172.509C41.8315 172.147 41.6986 171.739 41.665 171.316C41.6248 170.795 41.6759 170.271 41.816 169.768C41.9969 169.118 42.2697 168.496 42.626 167.923C42.9605 167.338 43.3774 166.804 43.864 166.338C44.2397 165.977 44.6756 165.685 45.152 165.474C45.541 165.303 45.9645 165.224 46.389 165.245C46.7738 165.267 47.1476 165.381 47.4784 165.579C47.8093 165.777 48.0874 166.052 48.289 166.38C48.5094 166.744 48.6416 167.155 48.675 167.58C48.7154 168.099 48.665 168.621 48.526 169.123C48.1412 170.42 47.4374 171.599 46.479 172.554L46.481 172.552ZM40.437 169.482C40.2797 170.153 40.2485 170.848 40.345 171.53C40.4324 172.129 40.6502 172.701 40.983 173.206C41.3055 173.688 41.7311 174.092 42.2291 174.389C42.727 174.686 43.2848 174.869 43.862 174.924C44.4635 174.979 45.0698 174.898 45.636 174.688C46.2794 174.445 46.8731 174.086 47.388 173.63C48.6227 172.499 49.4988 171.031 49.908 169.408C50.064 168.738 50.0979 168.045 50.008 167.363C49.9267 166.764 49.7107 166.191 49.376 165.687C49.053 165.204 48.6268 164.8 48.1282 164.502C47.6296 164.204 47.0711 164.021 46.493 163.966C45.8906 163.915 45.2842 163.997 44.717 164.206C44.0708 164.446 43.4742 164.803 42.957 165.259C41.7211 166.391 40.8442 167.861 40.435 169.486L40.437 169.482ZM25.97 162.086L34.029 154.111L33.015 153.086L29.941 156.127L28.235 154.403C27.903 154.057 27.502 153.784 27.058 153.603C26.6307 153.426 26.1734 153.333 25.711 153.329C25.252 153.327 24.7965 153.409 24.367 153.571C23.9333 153.731 23.5389 153.982 23.2103 154.307C22.8817 154.632 22.6266 155.024 22.462 155.456C22.2961 155.884 22.2093 156.338 22.206 156.797C22.205 157.26 22.2932 157.718 22.466 158.147C22.643 158.594 22.9094 158.999 23.249 159.339L25.97 162.086ZM29.048 157.012L25.848 160.178L24.142 158.453C23.9461 158.248 23.7913 158.007 23.686 157.743C23.5803 157.48 23.5289 157.198 23.535 156.915C23.5545 156.32 23.7998 155.755 24.221 155.334C24.4378 155.125 24.6914 154.958 24.969 154.841C25.2348 154.728 25.5202 154.668 25.809 154.665C26.094 154.657 26.3775 154.709 26.641 154.818C26.9037 154.926 27.1418 155.086 27.341 155.288L29.048 157.012ZM12.6 146.397L19.485 144.856L15.929 150.986L16.884 152.302L21.347 144.502L22.213 144.319C22.5769 144.216 22.9599 144.2 23.331 144.273C23.6567 144.348 23.9422 144.543 24.131 144.819C24.186 144.894 24.231 144.964 24.271 145.026C24.306 145.083 24.3378 145.142 24.366 145.202C24.3914 145.258 24.4115 145.316 24.426 145.375L25.372 144.689C25.3419 144.583 25.3034 144.48 25.257 144.381C25.1781 144.17 25.0701 143.97 24.936 143.789C24.7768 143.56 24.5726 143.366 24.3358 143.218C24.0991 143.071 23.8348 142.973 23.559 142.931C22.8087 142.848 22.0496 142.899 21.317 143.081L11.7 145.159L12.6 146.397ZM18.227 134.023L16.237 130.086C16.0301 129.667 15.745 129.291 15.397 128.979C15.0745 128.69 14.6965 128.469 14.2859 128.33C13.8754 128.191 13.441 128.138 13.009 128.172C12.1032 128.249 11.2625 128.674 10.664 129.358C10.3829 129.683 10.1706 130.062 10.04 130.471C9.9098 130.886 9.86291 131.323 9.902 131.757C9.9438 132.223 10.0759 132.676 10.291 133.091L11.631 135.743L8.744 137.202L6.226 132.221L4.94 132.871L8.108 139.138L18.227 134.023ZM11.42 132.523C11.2919 132.293 11.2126 132.039 11.1868 131.777C11.161 131.514 11.1893 131.25 11.27 130.999C11.489 130.491 11.8792 130.077 12.3725 129.827C12.8659 129.577 13.4312 129.509 13.97 129.633C14.2206 129.716 14.4513 129.849 14.6478 130.025C14.8444 130.201 15.0024 130.416 15.112 130.656L16.452 133.307L12.758 135.175L11.42 132.523ZM1.341 123.643L1.932 125.343L9.975 122.167L9.62 121.146L1.341 123.643ZM12.417 121.443C12.4667 121.333 12.4934 121.215 12.4957 121.094C12.4979 120.974 12.4756 120.854 12.43 120.743C12.396 120.627 12.3391 120.52 12.2626 120.426C12.1862 120.333 12.0918 120.256 11.985 120.2C11.8758 120.149 11.7573 120.121 11.6369 120.118C11.5164 120.115 11.3967 120.137 11.285 120.182C11.1678 120.214 11.0587 120.27 10.9652 120.347C10.8717 120.425 10.7959 120.521 10.743 120.631C10.6901 120.74 10.6613 120.859 10.6585 120.981C10.6558 121.102 10.6791 121.222 10.727 121.334C10.7604 121.45 10.8173 121.557 10.8943 121.65C10.9712 121.742 11.0664 121.818 11.174 121.872C11.2839 121.921 11.4025 121.947 11.5228 121.949C11.6431 121.951 11.7625 121.929 11.874 121.884C11.9903 121.852 12.0988 121.796 12.1927 121.72C12.2866 121.644 12.364 121.55 12.42 121.443H12.417ZM1.3 95.108L1.513 100.051L2.681 100.001L2.468 95.057L1.3 95.108Z"/></symbol><symbol id="icon-free-connect" viewBox="0 0 72 62" xmlns="http://www.w3.org/2000/svg"><g><path d="M11.5247 12.9512C11.8845 12.9512 12.2443 12.8139 12.5189 12.5392C12.52 12.5386 12.5239 12.5348 12.5272 12.5315C13.076 11.9899 13.0864 11.106 12.5481 10.5512C12.007 9.99422 11.1165 9.98048 10.559 10.5216C10.5529 10.5276 10.5348 10.5452 10.5288 10.5518C9.98111 11.1011 9.98111 11.9904 10.5299 12.5392C10.8051 12.8144 11.1649 12.9512 11.5247 12.9512Z" fill="#42454D"/><path d="M59.5 28L57.5 23.5L66 19.5L69.5 27L70.5 34L70 41.5L67.5 49.5L64.5 54.5L62 55.5H59.5L57.5 53L57 50L59.5 45L61 37.5L60.5 33L59.5 28Z" fill="#F9D14C"/><path d="M71.6967 31.3269C70.6657 23.4926 67.0336 16.1142 61.4701 10.5507C54.6663 3.74688 45.6213 0 36 0C28.481 0 21.2822 2.289 15.1815 6.61925C14.5481 7.06914 14.3993 7.94695 14.8486 8.58031C15.2979 9.21367 16.1758 9.36253 16.8097 8.91319C17.2634 8.5913 17.7237 8.28258 18.1901 7.9854L21.6881 14.0444C20.1808 15.0304 18.7636 16.1779 17.4606 17.4809C16.1697 18.7718 15.0222 20.1934 14.0323 21.7128L7.97337 18.2153C8.60509 17.2188 9.29008 16.2548 10.0284 15.3281C10.5118 14.7206 10.4118 13.8356 9.80424 13.3517C9.19615 12.8677 8.31175 12.9682 7.82781 13.5752C3.76232 18.68 1.16021 24.8181 0.30328 31.3264C-0.724489 39.1316 0.879513 47.1879 4.81756 54.0087C5.65416 55.4649 7.00768 56.5075 8.62871 56.9453C9.17418 57.0931 9.72789 57.1656 10.2783 57.1656C11.3632 57.1656 12.4344 56.8822 13.4001 56.3274C14.8563 55.4902 15.8989 54.1372 16.3367 52.5162C16.7745 50.8946 16.5553 49.2005 15.7171 47.7421C13.1155 43.2355 12.0993 38.123 12.7793 32.9573C13.4555 27.8212 15.7621 23.1575 19.4497 19.4699C23.8706 15.049 29.7482 12.615 36 12.615C42.2523 12.615 48.1305 15.049 52.5509 19.4699C56.2384 23.1569 58.5445 27.8212 59.2212 32.9573C59.5464 35.4287 59.4827 37.8879 59.0432 40.2753L44.5127 34.7788C44.248 32.9518 43.4064 31.2604 42.0853 29.9393C38.7312 26.5852 33.2737 26.5852 29.9196 29.9393C26.5655 33.2935 26.5655 38.7515 29.9196 42.1056C31.5967 43.7826 33.7994 44.6209 36.0022 44.6209C38.2055 44.6209 40.4083 43.7826 42.0853 42.105C42.3226 41.8683 42.5451 41.6172 42.7527 41.3552L58.0808 43.8596C57.6051 45.1933 57.0047 46.4919 56.2818 47.7443C54.5553 50.7502 55.5952 54.6003 58.6005 56.3268C60.0562 57.164 61.7508 57.3831 63.3718 56.9453C64.9929 56.5075 66.3464 55.4644 67.1814 54.0114C71.1205 47.1884 72.7245 39.1316 71.6967 31.3269ZM13.2798 49.1462C13.7417 49.9509 13.8631 50.8869 13.6214 51.7829C13.3792 52.6783 12.803 53.4264 11.9988 53.8884C11.194 54.3509 10.258 54.4723 9.36204 54.2306C8.46666 53.9884 7.71849 53.4121 7.25487 52.6052C4.54015 47.9031 3.04601 42.7389 2.83123 37.4271H9.80864C10.0333 41.5332 11.2171 45.574 13.2798 49.1462ZM9.99101 32.5903C9.90202 33.2633 9.84159 33.9384 9.80589 34.614H2.83672C2.87957 33.6428 2.96362 32.6694 3.09216 31.6939C3.60302 27.8151 4.78624 24.0803 6.56987 20.6532L12.6244 24.1485C11.2797 26.7879 10.3783 29.6477 9.99101 32.5903ZM31.9081 40.1165C29.651 37.8594 29.651 34.1861 31.9081 31.929C34.1658 29.6713 37.8386 29.6718 40.0962 31.929C40.5698 32.4025 40.951 32.9468 41.2317 33.5385L37.22 32.0207C36.2263 31.645 35.137 31.7153 34.1527 32.2201C33.0881 32.7656 32.2669 33.7824 31.957 34.9392C31.6472 36.0955 31.8499 37.3859 32.4992 38.3911C33.0996 39.32 34.0071 39.9264 35.0557 40.0978L39.2871 40.7889C37.0327 42.344 33.9132 42.121 31.9081 40.1165ZM42.3408 38.4378C42.3369 38.4373 42.3331 38.4367 42.3292 38.4356L35.5095 37.3216C35.1837 37.2683 34.9777 37.0436 34.8618 36.8651C34.6399 36.5212 34.5679 36.062 34.674 35.6665C34.78 35.271 35.0717 34.9095 35.4359 34.7228C35.5616 34.6585 35.7325 34.5964 35.9236 34.5964C36.0198 34.5964 36.1214 34.6124 36.2247 34.6514L42.6698 37.0892C42.683 37.0947 42.6967 37.0997 42.7104 37.1046L49.1946 39.5573L42.3408 38.4378ZM37.4062 9.83989V2.84436C42.3468 3.0487 47.0934 4.32916 51.3775 6.57256L47.8784 12.6337C44.6512 10.9907 41.0998 10.0338 37.4062 9.83989ZM20.6236 6.57421C24.9302 4.31762 29.6741 3.0465 34.5938 2.84271V9.83989C30.9002 10.0338 27.3488 10.9907 24.1216 12.6337L20.6236 6.57421ZM50.3119 14.0444L53.8121 7.9821C55.8391 9.27519 57.7403 10.7984 59.481 12.5392C61.2213 14.2795 62.7429 16.1795 64.0349 18.2104L57.9682 21.7133C56.9784 20.1934 55.8303 18.7718 54.5394 17.4809C53.2364 16.1779 51.8192 15.0304 50.3119 14.0444ZM59.3756 24.1485L65.4422 20.646C67.2182 24.054 68.392 27.7728 68.9084 31.6939C69.0364 32.6689 69.1204 33.6428 69.1638 34.614H62.1947C62.159 33.9384 62.098 33.2633 62.0095 32.5903C61.6223 29.6477 60.7208 26.7879 59.3756 24.1485ZM64.7435 52.6074C64.2815 53.4121 63.5333 53.9884 62.638 54.2301C61.7426 54.4718 60.806 54.3509 60.0018 53.8884C58.3412 52.9342 57.7661 50.8067 58.7191 49.1489C59.6052 47.6141 60.3286 45.9931 60.884 44.3177L62.5979 44.5978C62.6748 44.6105 62.7506 44.6165 62.8258 44.6165C63.452 44.6165 64.0162 44.1968 64.1832 43.5739C64.3705 42.8757 63.9981 42.1501 63.3224 41.8941L61.6942 41.2789C61.9535 40.0094 62.1205 38.7218 62.1919 37.4271H69.1688C68.954 42.7395 67.4599 47.9036 64.7435 52.6074Z" fill="#42454D"/><path d="M44.4386 49.8509H27.5614C26.7847 49.8509 26.1552 50.4804 26.1552 51.2571V55.7577C26.1552 56.5344 26.7847 57.1639 27.5614 57.1639H44.4386C45.2153 57.1639 45.8454 56.5344 45.8454 55.7577V51.2571C45.8454 50.4804 45.2153 49.8509 44.4386 49.8509ZM43.0323 54.3514H28.9682V52.6634H43.0323V54.3514Z" fill="#42454D"/><path d="M15.2122 34.614C14.4355 34.614 13.806 35.2435 13.806 36.0202C13.806 36.7969 14.4355 37.4264 15.2122 37.4264H15.2457C16.0225 37.4264 16.652 36.7969 16.652 36.0202C16.652 35.2435 16.0225 34.614 15.2457 34.614H15.2122Z" fill="#42454D"/><path d="M26.8429 17.344L26.8264 17.3149C26.4375 16.6425 25.5773 16.4118 24.9049 16.8007C24.2326 17.1891 24.0019 18.0493 24.3908 18.7223L24.4073 18.7508C24.6676 19.2018 25.1406 19.4539 25.6262 19.4539C25.8651 19.4539 26.1068 19.393 26.3282 19.2655C27.0011 18.8766 27.2313 18.0169 26.8429 17.344Z" fill="#42454D"/><path d="M46.378 19.4567C46.8641 19.4567 47.3366 19.2045 47.5969 18.7535L47.6134 18.7244C48.0023 18.0521 47.7716 17.1918 47.0992 16.8029C46.4269 16.4146 45.5667 16.6447 45.1777 17.3176L45.1613 17.3467C44.7729 18.0191 45.0031 18.8793 45.676 19.2677C45.8973 19.3957 46.139 19.4567 46.378 19.4567Z" fill="#42454D"/><path d="M56.7878 37.4314C57.5645 37.4314 58.194 36.8019 58.194 36.0251C58.194 35.2484 57.5645 34.6183 56.7878 34.6183H56.7548C55.9781 34.6183 55.348 35.2484 55.348 36.0251C55.348 36.8019 55.9781 37.4314 56.7548 37.4314H56.7878Z" fill="#42454D"/><path d="M31.1105 58.5707H31.0776C30.3008 58.5707 29.6713 59.2003 29.6713 59.977C29.6713 60.7537 30.3008 61.3832 31.0776 61.3832H31.1105C31.8873 61.3832 32.5173 60.7537 32.5173 59.977C32.5173 59.2003 31.8873 58.5707 31.1105 58.5707Z" fill="#42454D"/><path d="M40.923 58.5707H35.1513C34.3751 58.5707 33.7451 59.2008 33.7451 59.9775C33.7451 60.7543 34.3751 61.3838 35.1513 61.3838H40.923C41.6991 61.3838 42.3292 60.7543 42.3292 59.9775C42.3292 59.2008 41.6997 58.5707 40.923 58.5707Z" fill="#42454D"/></g></symbol><symbol id="icon-calendar" viewBox="0 0 73 66" xmlns="http://www.w3.org/2000/svg"><g><path d="M70.7344 40.8431V10.8281C70.7344 7.3388 67.8956 4.5 64.4062 4.5H56.1094V2.10938C56.1094 0.944438 55.1649 0 54 0C52.8351 0 51.8906 0.944438 51.8906 2.10938V4.5H38.1094V2.10938C38.1094 0.944438 37.1649 0 36 0C34.8351 0 33.8906 0.944438 33.8906 2.10938V4.5H20.1094V2.10938C20.1094 0.944438 19.1649 0 18 0C16.8351 0 15.8906 0.944438 15.8906 2.10938V4.5H6.32812C2.8388 4.5 0 7.3388 0 10.8281V49.6406C0 53.13 2.8388 55.9688 6.32812 55.9688H39.0839C42.0968 61.3346 47.8425 64.9688 54.4219 64.9688C64.1145 64.9688 72 57.0832 72 47.3906C72 45.0775 71.55 42.8678 70.7344 40.8431ZM6.32812 51.75C5.16502 51.75 4.21875 50.8037 4.21875 49.6406V10.8281C4.21875 9.66502 5.16502 8.71875 6.32812 8.71875H15.8906V11.25C15.8906 12.4149 16.8351 13.3594 18 13.3594C19.1649 13.3594 20.1094 12.4149 20.1094 11.25V8.71875H33.8906V11.25C33.8906 12.4149 34.8351 13.3594 36 13.3594C37.1649 13.3594 38.1094 12.4149 38.1094 11.25V8.71875H51.8906V11.25C51.8906 12.4149 52.8351 13.3594 54 13.3594C55.1649 13.3594 56.1094 12.4149 56.1094 11.25V8.71875H64.4062C65.5694 8.71875 66.5156 9.66502 66.5156 10.8281V34.6459C63.3623 31.6522 59.103 29.8125 54.4219 29.8125C44.7293 29.8125 36.8438 37.698 36.8438 47.3906C36.8438 48.8949 37.034 50.3554 37.3912 51.75H6.32812Z" fill="#42454D"/><path d="M14.625 22.5H11.25C10.0851 22.5 9.14062 23.4444 9.14062 24.6094C9.14062 25.7743 10.0851 26.7188 11.25 26.7188H14.625C15.7899 26.7188 16.7344 25.7743 16.7344 24.6094C16.7344 23.4444 15.7899 22.5 14.625 22.5Z" fill="#42454D"/><path d="M27 22.5H23.625C22.4601 22.5 21.5156 23.4444 21.5156 24.6094C21.5156 25.7743 22.4601 26.7188 23.625 26.7188H27C28.1649 26.7188 29.1094 25.7743 29.1094 24.6094C29.1094 23.4444 28.1649 22.5 27 22.5Z" fill="#42454D"/><path d="M27 31.5H23.625C22.4601 31.5 21.5156 32.4444 21.5156 33.6094C21.5156 34.7743 22.4601 35.7188 23.625 35.7188H27C28.1649 35.7188 29.1094 34.7743 29.1094 33.6094C29.1094 32.4444 28.1649 31.5 27 31.5Z" fill="#42454D"/><path d="M14.625 31.5H11.25C10.0851 31.5 9.14062 32.4444 9.14062 33.6094C9.14062 34.7743 10.0851 35.7188 11.25 35.7188H14.625C15.7899 35.7188 16.7344 34.7743 16.7344 33.6094C16.7344 32.4444 15.7899 31.5 14.625 31.5Z" fill="#42454D"/><path d="M14.625 40.5H11.25C10.0851 40.5 9.14062 41.4444 9.14062 42.6094C9.14062 43.7743 10.0851 44.7188 11.25 44.7188H14.625C15.7899 44.7188 16.7344 43.7743 16.7344 42.6094C16.7344 41.4444 15.7899 40.5 14.625 40.5Z" fill="#42454D"/><path d="M27 40.5H23.625C22.4601 40.5 21.5156 41.4444 21.5156 42.6094C21.5156 43.7743 22.4601 44.7188 23.625 44.7188H27C28.1649 44.7188 29.1094 43.7743 29.1094 42.6094C29.1094 41.4444 28.1649 40.5 27 40.5Z" fill="#42454D"/><circle cx="54.5" cy="47.5" r="18.5" fill="#F9D14C"/><path d="M59.1562 52H57.4805V55H55.1953V52H48.4805V50.0781L54.8438 39.8828H57.4805V49.8438H59.1562V52ZM55.1953 49.8438V43.2344L51.1172 49.8438H55.1953Z" fill="#42454D"/></g></symbol><symbol id="icon-laptop" viewBox="0 0 75 65" xmlns="http://www.w3.org/2000/svg"><g><path d="M70.4531 50.1082H64.9999V14.2445C64.9999 10.7958 62.2041 8 58.7554 8H12.7563C9.30755 8 6.51176 10.7958 6.51176 14.2445V50.1082H1.54668C0.692589 50.1082 0 50.8008 0 63.2263V55.0706C0 60.0174 4.01031 64.0279 8.95728 64.0279H39.5861C40.4402 64.0279 41.1328 63.3353 41.1328 62.4812C41.1328 61.6271 40.4402 60.9345 39.5861 60.9345H8.95728C5.71869 60.9343 3.09336 58.3092 3.09336 55.0706V53.2015H8.05865H26.3676C26.4225 56.1954 28.8733 58.6147 31.8804 58.6147H38.673C41.6799 58.6147 44.1309 56.1954 44.1858 53.2015H63.4536H68.9069V55.0706C68.9069 58.3092 66.2815 60.9345 63.0429 60.9345H46.8043C45.9502 60.9345 45.2576 61.6271 45.2576 62.4812C45.2576 63.3353 45.9502 64.0279 46.8043 64.0279H63.0427C67.9895 64.0279 72 60.0176 72 55.0706V51.6549C71.9998 50.8006 71.3072 50.1082 70.4531 50.1082ZM38.6728 55.5212H31.8802C30.579 55.5212 29.514 54.4897 29.4605 53.2013H41.0924C41.0389 54.4895 39.9741 55.5212 38.6728 55.5212ZM61.9065 50.1082H9.60533V14.2445C9.60533 12.5068 11.0188 11.0934 12.7565 11.0934H58.7554C60.4931 11.0934 61.9065 12.5068 61.9065 14.2445V50.1082Z" fill="#42454D"/><path d="M57.731 13.7926H28.6746C27.8664 13.7926 27.211 14.4487 27.211 15.2579C27.211 16.0671 27.8664 16.7233 28.6746 16.7233H56.2674V44.295H14.9311V16.7231H21.8442C22.6524 16.7231 23.3078 16.0669 23.3078 15.2577C23.3078 14.4485 22.6524 13.7924 21.8442 13.7924H13.4675C12.6593 13.7924 12.0039 14.4485 12.0039 15.2577V45.7602C12.0039 46.5694 12.6593 47.2256 13.4675 47.2256H57.731C58.5392 47.2256 59.1946 46.5694 59.1946 45.7602V15.2579C59.1946 14.4485 58.5394 13.7926 57.731 13.7926Z" fill="#42454D"/><path d="M31 6C31 2.68629 33.6863 0 37 0H69C72.3137 0 75 2.68629 75 6V26C75 29.3137 72.3137 32 69 32H52.583C51.2338 32 49.924 32.4547 48.8651 33.2907L43.9821 37.1457C42.7186 38.1432 40.8543 37.3152 40.7473 35.709L40.6245 33.867C40.5544 32.8164 39.6818 32 38.6289 32H37C33.6863 32 31 29.3137 31 26V6Z" fill="#F9D14C"/><path d="M46.8 22.68C44.6134 22.68 42.96 21.9734 41.84 20.56C40.72 19.1467 40.16 17.4934 40.16 15.6C40.16 13.68 40.72 12.0267 41.84 10.64C42.96 9.22669 44.6134 8.52002 46.8 8.52002C48.1067 8.52002 49.28 8.89335 50.32 9.64002C51.3867 10.3867 52.2134 11.3467 52.8 12.52C53.3867 11.3467 54.2 10.3867 55.24 9.64002C56.3067 8.89335 57.48 8.52002 58.76 8.52002C60.9734 8.52002 62.64 9.22669 63.76 10.64C64.88 12.0267 65.44 13.68 65.44 15.6C65.44 17.52 64.88 19.1867 63.76 20.6C62.64 21.9867 60.9734 22.68 58.76 22.68C57.48 22.68 56.3067 22.3067 55.24 21.56C54.2 20.8134 53.3867 19.8534 52.8 18.68C52.2134 19.8534 51.3867 20.8134 50.32 21.56C49.28 22.3067 48.1067 22.68 46.8 22.68ZM58.36 19.52C59.4534 19.52 60.3334 19.1734 61 18.48C61.6934 17.76 62.04 16.8 62.04 15.6C62.04 14.4 61.6934 13.44 61 12.72C60.3334 12 59.4534 11.64 58.36 11.64C57.4267 11.64 56.6 12.0134 55.88 12.76C55.1867 13.5067 54.64 14.4534 54.24 15.6C54.64 16.7467 55.1867 17.6934 55.88 18.44C56.6 19.16 57.4267 19.52 58.36 19.52ZM47.28 19.56C48.2134 19.56 49.0267 19.1867 49.72 18.44C50.4134 17.6934 50.96 16.7467 51.36 15.6C50.96 14.4534 50.4134 13.5067 49.72 12.76C49.0267 12.0134 48.2134 11.64 47.28 11.64C46.16 11.64 45.2534 12 44.56 12.72C43.8667 13.44 43.52 14.4 43.52 15.6C43.52 16.7734 43.8667 17.7334 44.56 18.48C45.28 19.2 46.1867 19.56 47.28 19.56Z" fill="#42454D"/></g><symbol id="icon-sertificate" viewBox="0 0 79 72" fill="none" xmlns="http://www.w3.org/2000/svg"><path d="M63 13.0781C63.7767 13.0781 64.4062 12.4485 64.4062 11.6719V4.21875C64.4062 1.89253 62.5137 0 60.1875 0H4.21875C1.89253 0 0 1.89253 0 4.21875V67.7812C0 70.1075 1.89253 72 4.21875 72H60.1875C62.5137 72 64.4062 70.1075 64.4062 67.7812V63.8438C64.4062 63.0671 63.7767 62.4375 63 62.4375C62.2233 62.4375 61.5938 63.0671 61.5938 63.8438V67.7812C61.5938 68.5567 60.9629 69.1875 60.1875 69.1875H4.21875C3.44334 69.1875 2.8125 68.5567 2.8125 67.7812V4.21875C2.8125 3.44334 3.44334 2.8125 4.21875 2.8125H60.1875C60.9629 2.8125 61.5938 3.44334 61.5938 4.21875V11.6719C61.5938 12.4485 62.2233 13.0781 63 13.0781Z" fill="black"/><path d="M56.2508 6.75H8.1554C7.37872 6.75 6.74915 7.37958 6.74915 8.15625V37.5469C6.74915 38.3235 7.37872 38.9531 8.1554 38.9531C8.93207 38.9531 9.56165 38.3235 9.56165 37.5469V9.5625H54.8446V10C54.8446 10.7767 55.4743 11.4062 56.2508 11.4062C57.0275 11.4062 57.6571 10.7767 57.6571 10V8.15625C57.6571 7.37958 57.0275 6.75 56.2508 6.75Z" fill="black"/> <path d="M9.14913 41.7558C8.88756 41.4942 8.52616 41.3438 8.15491 41.3438C7.78506 41.3438 7.42225 41.4942 7.16069 41.7558C6.89913 42.0173 6.74866 42.3802 6.74866 42.75C6.74866 43.1198 6.89913 43.4827 7.16069 43.7442C7.42225 44.0058 7.78506 44.1562 8.15491 44.1562C8.52616 44.1562 8.88756 44.0058 9.14913 43.7442C9.4121 43.4827 9.56116 43.1198 9.56116 42.75C9.56116 42.3802 9.4121 42.0173 9.14913 41.7558Z" fill="black"/> <path d="M56.2508 59.3438C55.4742 59.3438 54.8446 59.9733 54.8446 60.75V62.4375H9.56165V48.1641C9.56165 47.3874 8.93207 46.7578 8.1554 46.7578C7.37872 46.7578 6.74915 47.3874 6.74915 48.1641V63.8438C6.74915 64.6204 7.37872 65.25 8.1554 65.25H56.2508C57.0275 65.25 57.6571 64.6204 57.6571 63.8438V60.75C57.6571 59.9733 57.0275 59.3438 56.2508 59.3438Z" fill="black"/> <path d="M43.5802 49.6879C43.0311 49.1386 42.1408 49.1386 41.5915 49.6877L38.8122 52.4672L37.0846 50.7395C35.9938 49.6488 34.2192 49.6488 33.1284 50.7395L32.0043 51.8636C31.4551 52.4128 31.4551 53.3032 32.0043 53.8525C32.5534 54.4016 33.4438 54.4016 33.9931 53.8525L35.1066 52.739L36.8342 54.4667C37.3795 55.0121 38.0959 55.2847 38.8122 55.2847C39.5285 55.2847 40.2449 55.0121 40.7902 54.4667L43.5802 51.6767C44.1294 51.1276 44.1294 50.2371 43.5802 49.6879Z" fill="black"/> <path d="M71.3526 29.5006C71.9723 28.5338 72.1574 27.3429 71.8601 26.2337C71.5628 25.1244 70.8074 24.1858 69.7872 23.6584C69.3448 23.4298 69.0739 22.9607 69.0971 22.4633C69.1504 21.316 68.7153 20.1924 67.9034 19.3803C67.0914 18.5684 65.9681 18.1326 64.8204 18.1866C64.3207 18.2108 63.8539 17.9388 63.6253 17.4965C63.0979 16.4764 62.1592 15.7209 61.05 15.4236C59.9403 15.1262 58.7499 15.3114 57.7833 15.9311C57.3641 16.2 56.8224 16.1998 56.4033 15.9311C55.4365 15.3112 54.246 15.1263 53.1366 15.4236C52.0274 15.7209 51.0887 16.4764 50.5613 17.4965C50.3327 17.9389 49.8623 18.2091 49.3662 18.1866C48.2185 18.133 47.0954 18.5684 46.2834 19.3803C45.4713 20.1924 45.0362 21.316 45.0895 22.4631C45.1127 22.9607 44.8417 23.4298 44.3994 23.6584C43.3793 24.1858 42.6238 25.1243 42.3265 26.2337C42.1846 26.7629 42.1538 27.3106 42.2265 27.8437H17.6874C16.9108 27.8437 16.2812 28.4733 16.2812 29.25C16.2812 30.0266 16.9108 30.6562 17.6874 30.6562H42.945C42.9147 30.7334 42.8797 30.8092 42.8339 30.8807C42.2141 31.8475 42.0291 33.0383 42.3263 34.1475C42.3671 34.2998 42.4173 34.4486 42.475 34.5937H17.687C16.9103 34.5937 16.2808 35.2233 16.2808 36C16.2808 36.7766 16.9103 37.4062 17.687 37.4062H45.0055C45.0667 37.5669 45.0974 37.7403 45.0891 37.9179C45.0358 39.0652 45.4709 40.1888 46.283 41.0009C47.0949 41.8128 48.2181 42.2488 49.3657 42.1946C49.8626 42.1703 50.3323 42.4423 50.5609 42.8847C50.7298 43.2115 50.9414 43.5106 51.1868 43.7768V56.9102C51.1868 57.4783 51.5287 57.9906 52.0532 58.2087C52.5776 58.4268 53.182 58.3079 53.5849 57.9071L57.0931 54.4172L60.6013 57.9071C60.8701 58.1746 61.2286 58.3165 61.5934 58.3165C61.7751 58.3165 61.9584 58.2812 62.1329 58.2086C62.6575 57.9905 62.9993 57.4782 62.9993 56.9101V43.7767C63.2447 43.5106 63.4564 43.2114 63.6253 42.8845C63.8539 42.4421 64.3236 42.1719 64.8204 42.1945C65.9688 42.2488 67.0912 41.8128 67.9032 41.0007C68.7153 40.1886 69.1504 39.065 69.0971 37.9178C69.0739 37.4204 69.3449 36.9513 69.7872 36.7226C70.8073 36.1953 71.5628 35.2568 71.8601 34.1474C72.1574 33.038 71.9723 31.8473 71.3526 30.8804C71.0837 30.4614 71.0837 29.9198 71.3526 29.5006ZM60.1868 53.5277L58.0848 51.4367C57.5362 50.8909 56.6498 50.8909 56.1013 51.4367L53.9993 53.5277V45.0914C54.8407 45.131 55.6839 44.9111 56.4032 44.4501C56.8224 44.1812 57.3641 44.1814 57.7831 44.4501C58.4473 44.8759 59.2171 45.0966 59.9938 45.0966C60.0582 45.0966 60.1224 45.0933 60.1868 45.0902V53.5277ZM69.1434 33.4196C69.0492 33.7713 68.819 34.0572 68.4955 34.2244C67.0803 34.9561 66.2135 36.4571 66.2876 38.0487C66.3046 38.4125 66.172 38.7547 65.9145 39.0123C65.657 39.2698 65.3149 39.402 64.9511 39.3854C63.3586 39.3117 61.8585 40.1779 61.1268 41.5933C60.9596 41.9169 60.6737 42.147 60.3218 42.2412C59.9703 42.3353 59.6075 42.2792 59.301 42.0826C58.6303 41.6525 57.8617 41.4377 57.0929 41.4377C56.3244 41.4377 55.5556 41.6527 54.885 42.0826C54.5784 42.279 54.2158 42.3353 53.8641 42.2412C53.5122 42.147 53.2265 41.9168 53.0591 41.5933C52.3274 40.1781 50.8275 39.311 49.2348 39.3854C48.8719 39.4021 48.5289 39.2698 48.2714 39.0123C48.0138 38.7547 47.8813 38.4125 47.8983 38.0486C47.9505 36.9253 47.5324 35.8484 46.7853 35.054C46.7633 35.0299 46.741 35.0063 46.7174 34.9838C46.4206 34.683 46.0768 34.4243 45.6904 34.2244C45.3669 34.0572 45.1369 33.7715 45.0427 33.4196C44.9484 33.0678 45.0047 32.7051 45.2013 32.3987C46.0612 31.0574 46.0612 29.3241 45.2013 27.9828C45.0048 27.6762 44.9484 27.3136 45.0427 26.9617C45.1369 26.61 45.3671 26.3241 45.6905 26.1569C47.1058 25.4252 47.9724 23.9242 47.8985 22.3326C47.8814 21.9688 48.0141 21.6267 48.2715 21.3691C48.529 21.1114 48.8719 20.9792 49.235 20.996C50.8275 21.0698 52.3277 20.2034 53.0593 18.788C53.2265 18.4645 53.5124 18.2344 53.8642 18.1402C54.2159 18.0461 54.5786 18.1022 54.885 18.2988C56.2264 19.1589 57.9599 19.1589 59.3009 18.2988C59.6075 18.1023 59.97 18.0458 60.3218 18.1402C60.6737 18.2344 60.9594 18.4646 61.1268 18.788C61.8585 20.2033 63.3593 21.0702 64.9511 20.996C65.315 20.9794 65.657 21.1114 65.9145 21.3691C66.1721 21.6267 66.3046 21.9688 66.2876 22.3326C66.2136 23.9241 67.0801 25.4252 68.4957 26.1569C68.8191 26.3241 69.0492 26.6099 69.1434 26.9617C69.2376 27.3136 69.1814 27.6762 68.9848 27.9827C68.1248 29.3239 68.1248 31.0573 68.9848 32.3986C69.1814 32.7051 69.2377 33.0678 69.1434 33.4196Z" fill="black"/> <path d="M59.4837 13.775C60.6032 13.3112 61.8941 13.6218 62.6802 14.544C63.2389 15.1995 64.0686 15.5608 64.9291 15.5232C66.1397 15.4702 67.2465 16.2036 67.6698 17.339C67.9706 18.1461 68.6268 18.7694 69.4482 19.0283C70.6039 19.3926 71.3932 20.4603 71.4025 21.672C71.4092 22.5333 71.8126 23.3434 72.496 23.8677C73.4574 24.6053 73.8339 25.8785 73.4282 27.0204C73.1399 27.832 73.2419 28.7312 73.7047 29.4576C74.3559 30.4796 74.2742 31.8048 73.5025 32.7391C72.954 33.4031 72.7423 34.283 72.9287 35.1239C73.1911 36.3069 72.6611 37.5243 71.6164 38.1382C70.8738 38.5746 70.374 39.3291 70.2616 40.183C70.1035 41.3844 69.1891 42.3471 67.9974 42.5667C67.1503 42.7228 66.4226 43.2608 66.025 44.0248C65.4655 45.0997 64.277 45.6915 63.082 45.4903C62.2327 45.3473 61.3648 45.604 60.7299 46.1859C59.8365 47.0046 58.5172 47.1543 57.4631 46.5565C56.7139 46.1316 55.8107 46.076 55.0149 46.4056C53.8954 46.8694 52.6045 46.5589 51.8185 45.6366C51.2598 44.9811 50.43 44.6199 49.5695 44.6575C48.3589 44.7104 47.2521 43.9771 46.8288 42.8416C46.528 42.0345 45.8719 41.4113 45.0504 41.1523C43.8947 40.788 43.1054 39.7203 43.0961 38.5086C43.0894 37.6473 42.686 36.8372 42.0027 36.3129C41.0412 35.5753 40.6648 34.3021 41.0704 33.1602C41.3587 32.3486 41.2567 31.4494 40.7939 30.723C40.1427 29.701 40.2244 28.3758 40.9961 27.4416C41.5447 26.7775 41.7563 25.8976 41.5699 25.0568C41.3075 23.8737 41.8375 22.6564 42.8823 22.0424C43.6248 21.606 44.1247 20.8516 44.237 19.9977C44.3951 18.7962 45.3095 17.8336 46.5013 17.6139C47.3483 17.4578 48.076 16.9199 48.4737 16.1559C49.0332 15.0809 50.2216 14.4891 51.4166 14.6903C52.266 14.8333 53.1338 14.5767 53.7688 13.9948C54.6622 13.176 55.9814 13.0263 57.0355 13.6241C57.7847 14.049 58.688 14.1047 59.4837 13.775Z" fill="#F9D14C"/> <path d="M63.7808 26.3652C63.2317 25.8161 62.3413 25.8161 61.7921 26.3652L57.1246 31.0328L55.2666 29.1748C54.7174 28.6256 53.827 28.6256 53.2777 29.1748C52.7286 29.7239 52.7286 30.6144 53.2777 31.1636L56.1301 34.0161C56.4048 34.2907 56.7646 34.428 57.1245 34.428C57.4844 34.428 57.8444 34.2907 58.1189 34.0161L63.7808 28.3541C64.33 27.8049 64.33 26.9145 63.7808 26.3652Z" fill="black"/> <path d="M17.1661 17.0058C16.9045 16.7442 16.5417 16.5938 16.1719 16.5938C15.802 16.5938 15.4392 16.7442 15.1777 17.0058C14.9161 17.2673 14.7656 17.6302 14.7656 18C14.7656 18.3698 14.9161 18.7327 15.1777 18.9942C15.4392 19.2558 15.802 19.4062 16.1719 19.4062C16.5417 19.4062 16.9045 19.2558 17.1661 18.9942C17.4277 18.7327 17.5781 18.3698 17.5781 18C17.5781 17.6302 17.4277 17.2673 17.1661 17.0058Z" fill="black"/> <path d="M28.2647 16.5938H21.4209C20.6442 16.5938 20.0146 17.2233 20.0146 18C20.0146 18.7767 20.6442 19.4062 21.4209 19.4062H28.2647C29.0414 19.4062 29.6709 18.7767 29.6709 18C29.6709 17.2233 29.0414 16.5938 28.2647 16.5938Z" fill="black"/> <path d="M42.5861 41.3438H26.5095C25.7328 41.3438 25.1033 41.9733 25.1033 42.75C25.1033 43.5267 25.7328 44.1562 26.5095 44.1562H42.5859C43.3626 44.1562 43.9922 43.5267 43.9922 42.75C43.9922 41.9733 43.3627 41.3438 42.5861 41.3438Z" fill="black"/></symbol></symbol>
    <view xmlns="http://www.w3.org/2000/svg" id="icon-star-view" viewBox="0 0 40 40"/>
    <use fill="#7A7CD3" xlink:href="#icon-star" width="24" height="24" x="0" y="0" id="star"></use>
</svg>


