<svg width="298" height="298" viewBox="0 0 298 298" fill="none" xmlns="http://www.w3.org/2000/svg">
<path fill-rule="evenodd" clip-rule="evenodd" d="M146.887 298V0H151.114V298H146.887Z" fill="#D1D7DE"/>
<path fill-rule="evenodd" clip-rule="evenodd" d="M1.84766e-07 146.887L298 146.887V151.114H0L1.84766e-07 146.887Z" fill="#D1D7DE"/>
<path fill-rule="evenodd" clip-rule="evenodd" d="M252.865 255.853L42.1468 45.1351L45.1357 42.1462L255.854 252.864L252.865 255.853Z" fill="#D1D7DE"/>
<path fill-rule="evenodd" clip-rule="evenodd" d="M42.1463 252.864L252.864 42.1466L255.853 45.1355L45.1352 255.853L42.1463 252.864Z" fill="#D1D7DE"/>
<path fill-rule="evenodd" clip-rule="evenodd" d="M72.6698 276.981L221.67 18.9056L225.33 21.019L76.3304 279.095L72.6698 276.981Z" fill="#D1D7DE"/>
<path fill-rule="evenodd" clip-rule="evenodd" d="M21.0187 72.6697L279.094 221.67L276.981 225.33L18.9053 76.3304L21.0187 72.6697Z" fill="#D1D7DE"/>
<path fill-rule="evenodd" clip-rule="evenodd" d="M185.522 293.47L108.394 5.6239L112.477 4.52989L189.605 292.376L185.522 293.47Z" fill="#D1D7DE"/>
<path fill-rule="evenodd" clip-rule="evenodd" d="M4.52981 185.523L292.376 108.395L293.47 112.478L5.62383 189.606L4.52981 185.523Z" fill="#D1D7DE"/>
<path fill-rule="evenodd" clip-rule="evenodd" d="M108.395 292.376L185.523 4.53042L189.606 5.62444L112.478 293.47L108.395 292.376Z" fill="#D1D7DE"/>
<path fill-rule="evenodd" clip-rule="evenodd" d="M5.62383 108.394L293.47 185.522L292.376 189.605L4.52982 112.477L5.62383 108.394Z" fill="#D1D7DE"/>
<path fill-rule="evenodd" clip-rule="evenodd" d="M221.67 279.094L72.6698 21.0185L76.3304 18.9051L225.33 276.981L221.67 279.094Z" fill="#D1D7DE"/>
<path fill-rule="evenodd" clip-rule="evenodd" d="M18.9053 221.67L276.981 72.6698L279.094 76.3304L21.0188 225.33L18.9053 221.67Z" fill="#D1D7DE"/>
</svg>
