<svg width="170" height="170" viewBox="0 0 170 170" fill="none" xmlns="http://www.w3.org/2000/svg">
<path d="M81.648 61H89.784L88.416 95.488H82.944L81.648 61ZM85.752 111.832C84.408 111.832 83.28 111.4 82.368 110.536C81.456 109.624 81 108.52 81 107.224C81 105.928 81.456 104.848 82.368 103.984C83.28 103.072 84.408 102.616 85.752 102.616C87.096 102.616 88.2 103.072 89.064 103.984C89.928 104.848 90.36 105.928 90.36 107.224C90.36 108.52 89.904 109.624 88.992 110.536C88.128 111.4 87.048 111.832 85.752 111.832Z" fill="black"/>
<path d="M90.7333 25.943L91.0632 27.3127L91.6706 26.0415L102.228 3.94636L102.887 28.4256L102.925 29.8339L103.783 28.7168L118.704 9.29958L114.258 33.3807L114.003 34.7661L115.074 33.8519L133.706 17.9613L124.351 40.5919L123.813 41.8938L125.052 41.2225L146.58 29.5529L132.724 49.7439L131.927 50.9055L133.278 50.5063L156.763 43.5678L139.012 60.4367L137.99 61.4072L139.395 61.2977L163.809 59.3935L142.938 72.2031L141.738 72.9401L143.134 73.1249L167.41 76.3383L144.333 84.5288L143.005 85L144.333 85.4712L167.41 93.6617L143.134 96.8751L141.738 97.0599L142.938 97.7969L163.809 110.607L139.395 108.702L137.99 108.593L139.012 109.563L156.763 126.432L133.278 119.494L131.927 119.095L132.724 120.256L146.58 140.447L125.052 128.778L123.813 128.106L124.351 129.408L133.706 152.039L115.074 136.148L114.003 135.234L114.258 136.619L118.704 160.7L103.783 141.283L102.925 140.166L102.887 141.574L102.228 166.054L91.6706 143.958L91.0632 142.687L90.7333 144.057L85 167.864L79.2667 144.057L78.9368 142.687L78.3294 143.958L67.7715 166.054L67.1133 141.574L67.0754 140.166L66.217 141.283L51.296 160.7L55.7417 136.619L55.9975 135.234L54.9255 136.148L36.2935 152.039L45.6488 129.408L46.187 128.106L44.9485 128.778L23.4197 140.447L37.2758 120.256L38.0729 119.095L36.7218 119.494L13.2373 126.432L30.9885 109.563L32.0097 108.593L30.6052 108.702L6.19127 110.607L27.0618 97.7969L28.2625 97.0599L26.8658 96.8751L2.58952 93.6617L25.6672 85.4712L26.9949 85L25.6672 84.5288L2.58952 76.3383L26.8658 73.1249L28.2625 72.9401L27.0618 72.2031L6.19125 59.3935L30.6052 61.2977L32.0097 61.4072L30.9885 60.4367L13.2373 43.5678L36.7218 50.5063L38.0729 50.9055L37.2758 49.7439L23.4197 29.5529L44.9485 41.2225L46.187 41.8938L45.6488 40.5919L36.2935 17.9613L54.9255 33.8519L55.9975 34.7661L55.7417 33.3807L51.296 9.29958L66.217 28.7168L67.0754 29.8339L67.1133 28.4256L67.7715 3.94636L78.3294 26.0415L78.9368 27.3127L79.2667 25.943L85 2.13557L90.7333 25.943Z" stroke="black"/>
</svg>
