<svg width="37" height="29" viewBox="0 0 37 29" fill="none" xmlns="http://www.w3.org/2000/svg">
<path d="M28.8281 28.7578C26.625 28.7578 24.75 27.9375 23.2031 26.2969C21.6562 24.6562 20.8828 22.5938 20.8828 20.1094C20.8828 16.4531 21.4922 13.3828 22.7109 10.8984C23.9297 8.41406 25.2422 6.35156 26.6484 4.71094C28.3828 2.88281 30.3047 1.3125 32.4141 0L34.5938 2.8125C33.6562 3.46875 32.7422 4.33594 31.8516 5.41406C31.1016 6.25781 30.375 7.3125 29.6719 8.57812C29.0156 9.84375 28.5 11.2969 28.125 12.9375C30.6094 12.9375 32.6719 13.7109 34.3125 15.2578C35.9531 16.7578 36.7734 18.6094 36.7734 20.8125C36.7734 23.0156 36 24.8906 34.4531 26.4375C32.9062 27.9844 31.0312 28.7578 28.8281 28.7578ZM7.94531 28.7578C5.74219 28.7578 3.86719 27.9375 2.32031 26.2969C0.773438 24.6562 0 22.5938 0 20.1094C0 16.4531 0.609375 13.3828 1.82812 10.8984C3.04688 8.41406 4.35938 6.35156 5.76562 4.71094C7.5 2.88281 9.42188 1.3125 11.5312 0L13.7109 2.8125C12.7734 3.46875 11.8594 4.33594 10.9688 5.41406C10.2188 6.25781 9.49219 7.3125 8.78906 8.57812C8.13281 9.84375 7.61719 11.2969 7.24219 12.9375C9.72656 12.9375 11.7891 13.7109 13.4297 15.2578C15.0703 16.7578 15.8906 18.6094 15.8906 20.8125C15.8906 23.0156 15.1172 24.8906 13.5703 26.4375C12.0234 27.9844 10.1484 28.7578 7.94531 28.7578Z" fill="#585AC7"/>
</svg>
