<svg width="237" height="447" viewBox="0 0 237 447" fill="none" xmlns="http://www.w3.org/2000/svg">
<path d="M179.306 220.507L179.314 220.501L179.322 220.494C189.02 212.375 197.929 203.466 206.049 193.768C214.212 184.017 221.004 172.806 226.431 160.143C232.133 147.139 234.953 131.358 234.953 112.852C234.953 96.9881 232.007 82.3378 226.096 68.9205C220.421 55.5316 212.472 43.8346 202.252 33.8416C192.028 23.8451 179.882 16.0159 165.832 10.3487C151.968 4.44168 136.652 1.5 119.906 1.5C103.141 1.5 87.4835 4.6726 72.951 11.0297C58.6604 17.155 46.1768 25.7798 35.5112 36.8992C24.8408 48.0236 16.4531 61.2934 10.3402 76.6886L10.336 76.6995C4.43873 91.8963 1.5 108.544 1.5 126.625V139.055V140.555H3H27.1875H28.6875V139.055V126.625C28.6875 112.234 31.0113 99.0976 35.6376 87.1988C40.5009 75.0427 47.0102 64.5694 55.157 55.7601C63.5255 46.9531 73.2056 40.2452 84.2058 35.6252L84.2125 35.6224L84.2191 35.6195C95.4484 30.7755 107.339 28.3516 119.906 28.3516C132.493 28.3516 144.168 30.5589 154.949 34.9591L154.966 34.966L154.983 34.9725C165.996 39.1574 175.211 45.0894 182.658 52.7561L182.666 52.7639L182.674 52.7716C190.372 60.4699 196.424 69.4901 200.831 79.8451L200.836 79.8575L200.841 79.8697C205.456 90.1975 207.766 101.186 207.766 112.852C207.766 128.81 204.994 142.11 199.531 152.818L199.525 152.829L199.52 152.84C194.205 163.691 187.564 173.541 179.596 182.395C171.583 191.299 162.787 199.76 153.209 207.78C143.495 215.912 134.576 225.171 126.452 235.552L126.445 235.56L126.439 235.568C118.508 245.992 111.727 258.206 106.085 272.197L106.081 272.209C100.618 286.094 97.9141 302.977 97.9141 322.812V329.531V331.031H99.4141H123.266H124.766V329.531V322.812C124.766 305.039 127.433 290.258 132.696 278.412C138.242 266.213 144.998 255.475 152.959 246.187C160.963 236.849 169.745 228.289 179.306 220.507ZM97.6815 437.756L97.6951 437.77L97.7091 437.783C102.408 442.247 107.578 444.578 113.188 444.578C118.592 444.578 123.542 442.231 128.008 437.769C132.712 433.295 135.18 428.223 135.18 422.586C135.18 416.976 132.847 411.911 128.371 407.429C123.896 402.725 118.825 400.258 113.188 400.258C107.551 400.258 102.373 402.724 97.6815 407.416C93.1961 411.901 90.8594 416.97 90.8594 422.586C90.8594 428.202 93.1961 433.271 97.6815 437.756Z" stroke="#D1D7DE" stroke-width="3"/>
</svg>
